<svg xmlns="http://www.w3.org/2000/svg" xmlns:xlink="http://www.w3.org/1999/xlink" width="40" zoomAndPan="magnify" viewBox="0 0 30 30.000001" height="40" preserveAspectRatio="xMidYMid meet" version="1.0"><defs><clipPath id="b0e5395ebd"><path d="M 2 0 L 23 0 L 23 29.03125 L 2 29.03125 Z M 2 0 " clip-rule="nonzero"/></clipPath></defs><g clip-path="url(#b0e5395ebd)"><path fill="#e34625" d="M 7.46875 23.542969 L 14.945312 29.03125 L 22.386719 23.535156 L 14.941406 17.984375 L 7.484375 23.523438 L 10.339844 14.53125 L 2.84375 9.027344 L 12.085938 8.972656 L 14.945312 0 L 5.667969 0 L 2.847656 9.007812 C 1.210938 14.226562 2.886719 20.144531 7.46875 23.542969 Z M 7.46875 23.542969 " fill-opacity="1" fill-rule="nonzero"/></g><path fill="#e34625" d="M 27 9.007812 L 19.5625 14.53125 L 22.394531 23.53125 L 22.402344 23.527344 C 26.949219 20.125 28.679688 14.226562 27.023438 8.992188 L 27.019531 8.992188 L 24.164062 0 L 14.945312 0 L 17.800781 8.957031 Z M 27 9.007812 " fill-opacity="1" fill-rule="nonzero"/><path fill="#e34625" d="M 22.980469 23.542969 L 22.976562 23.53125 L 22.96875 23.535156 Z M 22.980469 23.542969 " fill-opacity="1" fill-rule="nonzero"/></svg>