<svg xmlns="http://www.w3.org/2000/svg" xmlns:xlink="http://www.w3.org/1999/xlink" width="208" zoomAndPan="magnify" viewBox="0 0 156 72" height="96" preserveAspectRatio="xMidYMid meet" version="1.0"><defs><clipPath id="5017b94f90"><path d="M 105.179688 0 L 135.179688 0 L 135.179688 28.5 L 105.179688 28.5 Z M 105.179688 0 " clip-rule="nonzero"/></clipPath></defs><path fill="#ffffff" d="M 136.96875 10.148438 L 19.03125 10.148438 C 15.179688 10.148438 12.0625 14.703125 12.0625 20.320312 L 12.0625 99.328125 C 12.0625 104.945312 15.179688 109.5 19.03125 109.5 L 136.96875 109.5 C 140.820312 109.5 143.941406 104.945312 143.941406 99.328125 L 143.941406 20.320312 C 143.941406 14.703125 140.820312 10.148438 136.96875 10.148438 Z M 136.96875 10.148438 " fill-opacity="0.05" fill-rule="nonzero"/><path stroke-linecap="butt" transform="matrix(0.747436, 0, 0, 0.75, 0.266602, 0.000002)" fill="none" stroke-linejoin="miter" d="M 182.539289 14.244789 L 24.744734 14.244789 C 19.795526 14.244789 15.781807 20.473955 15.781807 28.161455 L 15.781807 140.624994 C 15.781807 148.312494 19.795526 154.546869 24.744734 154.546869 L 182.539289 154.546869 C 187.488497 154.546869 191.502216 148.312494 191.502216 140.624994 L 191.502216 28.161455 C 191.502216 20.473955 187.488497 14.244789 182.539289 14.244789 Z M 182.539289 14.244789 " stroke="#ffffff" stroke-width="1" stroke-opacity="0.1" stroke-miterlimit="4"/><path fill="#ffffff" d="M 29.484375 21.898438 C 29.484375 18.949219 27.082031 16.558594 24.121094 16.558594 C 21.160156 16.558594 18.761719 18.949219 18.761719 21.898438 C 18.761719 24.851562 21.160156 27.242188 24.121094 27.242188 C 27.082031 27.242188 29.484375 24.851562 29.484375 21.898438 Z M 29.484375 21.898438 " fill-opacity="0.2" fill-rule="nonzero"/><path stroke-linecap="butt" transform="matrix(0.747436, 0, 0, 0.75, 0.266602, 0.000002)" fill="none" stroke-linejoin="miter" d="M 38.730037 29.197913 C 38.730037 25.463538 35.677938 22.432288 31.915076 22.432288 C 28.152215 22.432288 25.105342 25.463538 25.105342 29.197913 C 25.105342 32.937497 28.152215 35.963538 31.915076 35.963538 C 35.677938 35.963538 38.730037 32.937497 38.730037 29.197913 Z M 38.730037 29.197913 " stroke="#ffffff" stroke-width="1" stroke-opacity="0.1" stroke-miterlimit="4"/><path fill="#ffffff" d="M 123.300781 33.652344 L 20.90625 33.652344 C 19.722656 33.652344 18.761719 34.609375 18.761719 35.789062 C 18.761719 36.96875 19.722656 37.925781 20.90625 37.925781 L 123.300781 37.925781 C 124.484375 37.925781 125.445312 36.96875 125.445312 35.789062 C 125.445312 34.609375 124.484375 33.652344 123.300781 33.652344 Z M 123.300781 33.652344 " fill-opacity="0.2" fill-rule="nonzero"/><path fill="#ffffff" d="M 57.898438 19.761719 L 36.453125 19.761719 C 35.269531 19.761719 34.308594 20.71875 34.308594 21.898438 C 34.308594 23.078125 35.269531 24.035156 36.453125 24.035156 L 57.898438 24.035156 C 59.082031 24.035156 60.039062 23.078125 60.039062 21.898438 C 60.039062 20.71875 59.082031 19.761719 57.898438 19.761719 Z M 57.898438 19.761719 " fill-opacity="0.2" fill-rule="nonzero"/><path fill="#ffffff" d="M 73.980469 19.761719 L 65.402344 19.761719 C 64.21875 19.761719 63.257812 20.71875 63.257812 21.898438 C 63.257812 23.078125 64.21875 24.035156 65.402344 24.035156 L 73.980469 24.035156 C 75.164062 24.035156 76.125 23.078125 76.125 21.898438 C 76.125 20.71875 75.164062 19.761719 73.980469 19.761719 Z M 73.980469 19.761719 " fill-opacity="0.2" fill-rule="nonzero"/><path fill="#ffffff" d="M 63.257812 42.199219 L 20.90625 42.199219 C 19.722656 42.199219 18.761719 43.152344 18.761719 44.335938 C 18.761719 45.515625 19.722656 46.472656 20.90625 46.472656 L 63.257812 46.472656 C 64.441406 46.472656 65.402344 45.515625 65.402344 44.335938 C 65.402344 43.152344 64.441406 42.199219 63.257812 42.199219 Z M 63.257812 42.199219 " fill-opacity="0.2" fill-rule="nonzero"/><g clip-path="url(#5017b94f90)"><path fill="#7dcaff" d="M 120.800781 1.269531 L 123.570312 0.285156 C 124.367188 0.00390625 125.253906 0.292969 125.730469 0.988281 L 127.390625 3.410156 C 127.632812 3.765625 127.988281 4.023438 128.398438 4.144531 L 131.21875 4.976562 C 132.027344 5.214844 132.574219 5.96875 132.554688 6.8125 L 132.472656 9.75 C 132.460938 10.179688 132.597656 10.597656 132.859375 10.9375 L 134.648438 13.265625 C 135.164062 13.933594 135.164062 14.867188 134.648438 15.535156 L 132.859375 17.863281 C 132.597656 18.203125 132.460938 18.625 132.472656 19.050781 L 132.554688 21.988281 C 132.574219 22.832031 132.027344 23.585938 131.21875 23.824219 L 128.398438 24.65625 C 127.988281 24.777344 127.632812 25.035156 127.390625 25.390625 L 125.730469 27.8125 C 125.253906 28.511719 124.367188 28.796875 123.570312 28.515625 L 120.800781 27.53125 C 120.398438 27.386719 119.957031 27.386719 119.554688 27.53125 L 116.785156 28.515625 C 115.988281 28.796875 115.101562 28.511719 114.625 27.8125 L 112.964844 25.390625 C 112.722656 25.035156 112.367188 24.777344 111.953125 24.65625 L 109.136719 23.824219 C 108.328125 23.585938 107.777344 22.832031 107.800781 21.988281 L 107.882812 19.050781 C 107.894531 18.625 107.757812 18.203125 107.496094 17.863281 L 105.707031 15.535156 C 105.191406 14.867188 105.191406 13.933594 105.707031 13.265625 L 107.496094 10.9375 C 107.757812 10.597656 107.894531 10.179688 107.882812 9.75 L 107.800781 6.8125 C 107.777344 5.96875 108.328125 5.214844 109.136719 4.976562 L 111.953125 4.144531 C 112.367188 4.023438 112.722656 3.765625 112.964844 3.410156 L 114.625 0.988281 C 115.101562 0.292969 115.988281 0.00390625 116.785156 0.285156 L 119.554688 1.269531 C 119.957031 1.414062 120.398438 1.414062 120.800781 1.269531 " fill-opacity="1" fill-rule="nonzero"/></g><path fill="#ffffff" d="M 128.476562 10.023438 L 126.132812 7.679688 L 117.378906 16.433594 L 114.222656 13.277344 L 111.878906 15.621094 L 117.378906 21.121094 L 128.476562 10.023438 " fill-opacity="1" fill-rule="nonzero"/></svg>