<svg xmlns="http://www.w3.org/2000/svg" xmlns:xlink="http://www.w3.org/1999/xlink" width="200" zoomAndPan="magnify" viewBox="0 0 150 149.999998" height="200" preserveAspectRatio="xMidYMid meet" version="1.0"><defs><clipPath id="a95c31e77c"><path d="M 0 0.816406 L 150 0.816406 L 150 149.316406 L 0 149.316406 Z M 0 0.816406 " clip-rule="nonzero"/></clipPath><clipPath id="fb5604ff3f"><path d="M 113.957031 0.816406 C 93.890625 0.816406 78.800781 8.507812 78.800781 18.699219 L 78.800781 71.933594 C 78.800781 81.582031 92.351562 88.988281 110.800781 89.746094 L 110.800781 98.429688 C 110.800781 98.738281 110.769531 99.046875 110.710938 99.351562 C 110.648438 99.65625 110.558594 99.953125 110.441406 100.242188 C 110.320312 100.527344 110.175781 100.800781 110.003906 101.058594 C 109.832031 101.320312 109.632812 101.558594 109.414062 101.777344 C 109.195312 102 108.957031 102.195312 108.695312 102.367188 C 108.4375 102.539062 108.164062 102.6875 107.878906 102.804688 C 107.59375 102.925781 107.296875 103.015625 106.992188 103.074219 C 106.6875 103.136719 106.378906 103.164062 106.066406 103.164062 L 43.851562 103.164062 C 43.542969 103.164062 43.234375 103.136719 42.929688 103.074219 C 42.625 103.015625 42.328125 102.925781 42.042969 102.804688 C 41.753906 102.6875 41.480469 102.539062 41.222656 102.367188 C 40.964844 102.195312 40.726562 102 40.507812 101.777344 C 40.289062 101.558594 40.089844 101.320312 39.917969 101.058594 C 39.746094 100.800781 39.601562 100.527344 39.480469 100.242188 C 39.363281 99.953125 39.273438 99.65625 39.210938 99.351562 C 39.152344 99.046875 39.121094 98.738281 39.121094 98.429688 L 39.121094 89.746094 C 57.570312 88.953125 71.121094 81.589844 71.121094 71.933594 L 71.121094 18.699219 C 71.121094 8.507812 56.03125 0.816406 35.964844 0.816406 C 15.902344 0.816406 0.820312 8.507812 0.820312 18.699219 L 0.820312 71.933594 C 0.820312 81.589844 14.371094 88.988281 32.8125 89.746094 L 32.8125 98.429688 C 32.8125 99.15625 32.882812 99.875 33.023438 100.585938 C 33.164062 101.296875 33.375 101.988281 33.652344 102.660156 C 33.929688 103.328125 34.269531 103.964844 34.671875 104.570312 C 35.074219 105.171875 35.53125 105.730469 36.046875 106.242188 C 36.558594 106.757812 37.117188 107.214844 37.71875 107.617188 C 38.320312 108.023438 38.957031 108.363281 39.628906 108.640625 C 40.296875 108.917969 40.988281 109.128906 41.699219 109.269531 C 42.410156 109.410156 43.128906 109.480469 43.851562 109.480469 L 71.804688 109.480469 L 71.804688 116.585938 L 19.101562 116.585938 C 18.378906 116.585938 17.660156 116.65625 16.949219 116.800781 C 16.238281 116.941406 15.546875 117.148438 14.878906 117.429688 C 14.207031 117.707031 13.570312 118.046875 12.96875 118.449219 C 12.367188 118.851562 11.808594 119.3125 11.296875 119.824219 C 10.78125 120.335938 10.324219 120.894531 9.921875 121.5 C 9.519531 122.101562 9.179688 122.738281 8.902344 123.410156 C 8.625 124.078125 8.414062 124.769531 8.273438 125.484375 C 8.132812 126.195312 8.0625 126.914062 8.0625 127.640625 L 8.0625 128.996094 C 7.671875 129.121094 7.289062 129.269531 6.917969 129.4375 C 6.542969 129.605469 6.183594 129.796875 5.832031 130.011719 C 5.484375 130.222656 5.148438 130.453125 4.824219 130.707031 C 4.503906 130.957031 4.195312 131.230469 3.90625 131.515625 C 3.613281 131.804688 3.339844 132.109375 3.085938 132.429688 C 2.832031 132.75 2.597656 133.085938 2.382812 133.433594 C 2.167969 133.78125 1.972656 134.140625 1.800781 134.511719 C 1.625 134.882812 1.476562 135.265625 1.347656 135.652344 C 1.21875 136.042969 1.117188 136.4375 1.035156 136.839844 C 0.953125 137.242188 0.894531 137.644531 0.863281 138.054688 C 0.828125 138.460938 0.820312 138.871094 0.835938 139.28125 C 0.851562 139.691406 0.890625 140.097656 0.953125 140.5 C 1.015625 140.90625 1.101562 141.304688 1.210938 141.699219 C 1.320312 142.09375 1.453125 142.480469 1.609375 142.859375 C 1.765625 143.238281 1.941406 143.605469 2.140625 143.964844 C 2.339844 144.324219 2.5625 144.667969 2.800781 145 C 3.039062 145.332031 3.300781 145.648438 3.578125 145.949219 C 3.855469 146.25 4.148438 146.535156 4.457031 146.800781 C 4.769531 147.066406 5.09375 147.3125 5.433594 147.542969 C 5.773438 147.769531 6.125 147.976562 6.492188 148.164062 C 6.855469 148.347656 7.230469 148.511719 7.613281 148.65625 C 7.996094 148.796875 8.386719 148.917969 8.785156 149.011719 C 9.183594 149.109375 9.585938 149.179688 9.992188 149.226562 C 10.398438 149.277344 10.804688 149.300781 11.214844 149.300781 C 11.625 149.300781 12.03125 149.277344 12.4375 149.226562 C 12.84375 149.179688 13.246094 149.109375 13.644531 149.011719 C 14.042969 148.917969 14.433594 148.796875 14.816406 148.65625 C 15.203125 148.511719 15.574219 148.347656 15.941406 148.164062 C 16.304688 147.976562 16.65625 147.769531 16.996094 147.542969 C 17.335938 147.3125 17.660156 147.066406 17.972656 146.800781 C 18.285156 146.535156 18.578125 146.25 18.855469 145.949219 C 19.132812 145.648438 19.390625 145.332031 19.628906 145 C 19.871094 144.667969 20.089844 144.324219 20.289062 143.964844 C 20.488281 143.605469 20.667969 143.238281 20.820312 142.859375 C 20.976562 142.480469 21.109375 142.09375 21.21875 141.699219 C 21.332031 141.304688 21.417969 140.90625 21.480469 140.5 C 21.542969 140.097656 21.582031 139.691406 21.597656 139.28125 C 21.609375 138.871094 21.601562 138.460938 21.570312 138.054688 C 21.535156 137.644531 21.476562 137.242188 21.398438 136.839844 C 21.316406 136.4375 21.210938 136.042969 21.082031 135.652344 C 20.953125 135.265625 20.804688 134.882812 20.632812 134.511719 C 20.460938 134.140625 20.265625 133.78125 20.050781 133.433594 C 19.835938 133.085938 19.597656 132.75 19.34375 132.429688 C 19.089844 132.109375 18.816406 131.804688 18.527344 131.515625 C 18.234375 131.230469 17.929688 130.957031 17.605469 130.707031 C 17.285156 130.453125 16.949219 130.222656 16.597656 130.011719 C 16.246094 129.796875 15.886719 129.605469 15.515625 129.4375 C 15.140625 129.269531 14.761719 129.121094 14.371094 128.996094 L 14.371094 127.640625 C 14.371094 127.328125 14.402344 127.019531 14.460938 126.714844 C 14.523438 126.410156 14.613281 126.113281 14.730469 125.828125 C 14.851562 125.539062 14.996094 125.265625 15.167969 125.007812 C 15.339844 124.75 15.535156 124.507812 15.757812 124.289062 C 15.976562 124.070312 16.214844 123.875 16.472656 123.699219 C 16.730469 123.527344 17.003906 123.382812 17.292969 123.261719 C 17.578125 123.144531 17.875 123.054688 18.179688 122.992188 C 18.484375 122.933594 18.792969 122.902344 19.101562 122.902344 L 37.804688 122.902344 L 37.804688 128.996094 C 37.414062 129.121094 37.03125 129.269531 36.660156 129.4375 C 36.289062 129.605469 35.925781 129.796875 35.578125 130.011719 C 35.226562 130.222656 34.890625 130.453125 34.566406 130.707031 C 34.246094 130.957031 33.9375 131.230469 33.648438 131.515625 C 33.355469 131.804688 33.085938 132.109375 32.828125 132.429688 C 32.574219 132.75 32.339844 133.085938 32.125 133.433594 C 31.910156 133.78125 31.714844 134.140625 31.542969 134.511719 C 31.371094 134.882812 31.21875 135.265625 31.089844 135.652344 C 30.964844 136.042969 30.859375 136.4375 30.777344 136.839844 C 30.695312 137.242188 30.640625 137.644531 30.605469 138.054688 C 30.574219 138.460938 30.5625 138.871094 30.578125 139.28125 C 30.59375 139.691406 30.632812 140.097656 30.695312 140.5 C 30.757812 140.90625 30.84375 141.304688 30.953125 141.699219 C 31.0625 142.09375 31.195312 142.480469 31.351562 142.859375 C 31.507812 143.238281 31.6875 143.605469 31.886719 143.964844 C 32.085938 144.324219 32.304688 144.667969 32.542969 145 C 32.785156 145.332031 33.042969 145.648438 33.320312 145.949219 C 33.597656 146.25 33.890625 146.535156 34.203125 146.800781 C 34.511719 147.066406 34.835938 147.3125 35.175781 147.542969 C 35.515625 147.769531 35.871094 147.976562 36.234375 148.164062 C 36.597656 148.347656 36.972656 148.511719 37.355469 148.65625 C 37.742188 148.796875 38.132812 148.917969 38.527344 149.011719 C 38.925781 149.109375 39.328125 149.179688 39.734375 149.226562 C 40.140625 149.277344 40.550781 149.300781 40.957031 149.300781 C 41.367188 149.300781 41.777344 149.277344 42.183594 149.226562 C 42.589844 149.179688 42.992188 149.109375 43.386719 149.011719 C 43.785156 148.917969 44.175781 148.796875 44.5625 148.65625 C 44.945312 148.511719 45.320312 148.347656 45.683594 148.164062 C 46.046875 147.976562 46.398438 147.769531 46.738281 147.542969 C 47.078125 147.3125 47.40625 147.066406 47.714844 146.800781 C 48.027344 146.535156 48.320312 146.25 48.597656 145.949219 C 48.875 145.648438 49.132812 145.332031 49.375 145 C 49.613281 144.667969 49.832031 144.324219 50.03125 143.964844 C 50.230469 143.605469 50.410156 143.238281 50.566406 142.859375 C 50.71875 142.480469 50.851562 142.09375 50.964844 141.699219 C 51.074219 141.304688 51.160156 140.90625 51.222656 140.5 C 51.285156 140.097656 51.324219 139.691406 51.339844 139.28125 C 51.355469 138.871094 51.34375 138.460938 51.3125 138.054688 C 51.277344 137.644531 51.21875 137.242188 51.140625 136.839844 C 51.058594 136.4375 50.953125 136.042969 50.824219 135.652344 C 50.699219 135.265625 50.546875 134.882812 50.375 134.511719 C 50.203125 134.140625 50.007812 133.78125 49.792969 133.433594 C 49.578125 133.085938 49.34375 132.75 49.085938 132.429688 C 48.832031 132.109375 48.558594 131.804688 48.269531 131.515625 C 47.980469 131.230469 47.671875 130.957031 47.351562 130.707031 C 47.027344 130.453125 46.691406 130.222656 46.339844 130.011719 C 45.992188 129.796875 45.628906 129.605469 45.257812 129.4375 C 44.882812 129.269531 44.503906 129.121094 44.113281 128.996094 L 44.113281 122.902344 L 71.804688 122.902344 L 71.804688 128.074219 C 71.394531 128.199219 70.992188 128.347656 70.601562 128.519531 C 70.207031 128.691406 69.824219 128.886719 69.457031 129.105469 C 69.085938 129.324219 68.730469 129.5625 68.390625 129.824219 C 68.046875 130.085938 67.722656 130.363281 67.414062 130.664062 C 67.105469 130.960938 66.816406 131.277344 66.546875 131.613281 C 66.273438 131.945312 66.023438 132.292969 65.796875 132.65625 C 65.566406 133.019531 65.359375 133.394531 65.171875 133.78125 C 64.988281 134.171875 64.828125 134.566406 64.691406 134.972656 C 64.550781 135.382812 64.4375 135.792969 64.351562 136.214844 C 64.261719 136.636719 64.199219 137.058594 64.160156 137.488281 C 64.121094 137.914062 64.109375 138.34375 64.121094 138.773438 C 64.132812 139.203125 64.171875 139.628906 64.234375 140.054688 C 64.296875 140.480469 64.382812 140.898438 64.496094 141.316406 C 64.609375 141.730469 64.746094 142.136719 64.910156 142.535156 C 65.070312 142.933594 65.253906 143.320312 65.460938 143.695312 C 65.667969 144.070312 65.898438 144.433594 66.148438 144.785156 C 66.398438 145.132812 66.667969 145.464844 66.957031 145.785156 C 67.246094 146.101562 67.554688 146.398438 67.878906 146.679688 C 68.203125 146.960938 68.542969 147.222656 68.898438 147.460938 C 69.253906 147.703125 69.625 147.917969 70.007812 148.117188 C 70.386719 148.3125 70.78125 148.484375 71.183594 148.632812 C 71.585938 148.785156 71.996094 148.910156 72.414062 149.011719 C 72.828125 149.113281 73.25 149.1875 73.675781 149.238281 C 74.105469 149.289062 74.53125 149.3125 74.960938 149.316406 C 75.390625 149.3125 75.816406 149.289062 76.242188 149.238281 C 76.671875 149.1875 77.089844 149.113281 77.507812 149.011719 C 77.925781 148.910156 78.335938 148.785156 78.738281 148.632812 C 79.140625 148.484375 79.53125 148.3125 79.914062 148.117188 C 80.296875 147.917969 80.664062 147.703125 81.019531 147.460938 C 81.378906 147.222656 81.71875 146.960938 82.042969 146.679688 C 82.367188 146.398438 82.675781 146.101562 82.964844 145.785156 C 83.253906 145.464844 83.523438 145.132812 83.773438 144.785156 C 84.023438 144.433594 84.253906 144.070312 84.460938 143.695312 C 84.667969 143.320312 84.851562 142.933594 85.011719 142.535156 C 85.171875 142.136719 85.3125 141.730469 85.421875 141.316406 C 85.535156 140.898438 85.625 140.480469 85.6875 140.054688 C 85.75 139.628906 85.789062 139.203125 85.800781 138.773438 C 85.8125 138.34375 85.800781 137.914062 85.761719 137.488281 C 85.722656 137.058594 85.660156 136.636719 85.570312 136.214844 C 85.484375 135.792969 85.371094 135.382812 85.230469 134.972656 C 85.09375 134.566406 84.933594 134.171875 84.746094 133.78125 C 84.5625 133.394531 84.355469 133.019531 84.125 132.65625 C 83.894531 132.292969 83.644531 131.945312 83.375 131.613281 C 83.105469 131.277344 82.816406 130.960938 82.507812 130.664062 C 82.199219 130.363281 81.875 130.085938 81.53125 129.824219 C 81.191406 129.5625 80.835938 129.324219 80.464844 129.105469 C 80.09375 128.886719 79.714844 128.691406 79.320312 128.519531 C 78.929688 128.347656 78.527344 128.199219 78.117188 128.074219 L 78.117188 122.902344 L 105.808594 122.902344 L 105.808594 128.996094 C 105.417969 129.121094 105.035156 129.269531 104.664062 129.4375 C 104.289062 129.609375 103.929688 129.796875 103.578125 130.011719 C 103.226562 130.222656 102.890625 130.457031 102.570312 130.707031 C 102.246094 130.960938 101.9375 131.230469 101.648438 131.519531 C 101.355469 131.808594 101.082031 132.113281 100.828125 132.433594 C 100.574219 132.753906 100.339844 133.085938 100.121094 133.4375 C 99.90625 133.785156 99.714844 134.144531 99.539062 134.515625 C 99.367188 134.886719 99.214844 135.269531 99.089844 135.65625 C 98.960938 136.046875 98.855469 136.441406 98.773438 136.84375 C 98.691406 137.246094 98.636719 137.652344 98.601562 138.058594 C 98.570312 138.46875 98.558594 138.878906 98.574219 139.289062 C 98.589844 139.695312 98.628906 140.105469 98.691406 140.507812 C 98.753906 140.914062 98.839844 141.316406 98.949219 141.710938 C 99.058594 142.105469 99.191406 142.492188 99.347656 142.871094 C 99.503906 143.25 99.683594 143.617188 99.882812 143.976562 C 100.082031 144.335938 100.300781 144.679688 100.539062 145.011719 C 100.78125 145.34375 101.039062 145.660156 101.316406 145.960938 C 101.59375 146.261719 101.890625 146.546875 102.199219 146.8125 C 102.511719 147.082031 102.835938 147.328125 103.175781 147.554688 C 103.515625 147.785156 103.871094 147.992188 104.234375 148.179688 C 104.597656 148.363281 104.972656 148.527344 105.359375 148.671875 C 105.742188 148.8125 106.132812 148.933594 106.53125 149.027344 C 106.929688 149.125 107.332031 149.195312 107.738281 149.246094 C 108.144531 149.292969 108.554688 149.316406 108.960938 149.316406 C 109.371094 149.316406 109.78125 149.292969 110.1875 149.246094 C 110.59375 149.195312 110.996094 149.125 111.394531 149.027344 C 111.792969 148.933594 112.183594 148.8125 112.566406 148.671875 C 112.953125 148.527344 113.328125 148.363281 113.691406 148.179688 C 114.054688 147.992188 114.40625 147.785156 114.75 147.554688 C 115.089844 147.328125 115.414062 147.082031 115.726562 146.8125 C 116.035156 146.546875 116.332031 146.261719 116.609375 145.960938 C 116.886719 145.660156 117.144531 145.34375 117.382812 145.011719 C 117.625 144.679688 117.84375 144.335938 118.042969 143.976562 C 118.242188 143.617188 118.421875 143.25 118.578125 142.871094 C 118.730469 142.492188 118.863281 142.105469 118.976562 141.710938 C 119.085938 141.316406 119.171875 140.914062 119.234375 140.507812 C 119.296875 140.105469 119.335938 139.695312 119.351562 139.289062 C 119.367188 138.878906 119.355469 138.46875 119.324219 138.058594 C 119.289062 137.652344 119.230469 137.246094 119.152344 136.84375 C 119.070312 136.441406 118.964844 136.046875 118.835938 135.65625 C 118.707031 135.269531 118.558594 134.886719 118.386719 134.515625 C 118.210938 134.144531 118.019531 133.785156 117.800781 133.4375 C 117.585938 133.085938 117.351562 132.753906 117.097656 132.433594 C 116.839844 132.113281 116.570312 131.808594 116.277344 131.519531 C 115.988281 131.230469 115.679688 130.960938 115.355469 130.707031 C 115.035156 130.457031 114.695312 130.222656 114.347656 130.011719 C 113.996094 129.796875 113.636719 129.609375 113.261719 129.4375 C 112.890625 129.269531 112.507812 129.121094 112.117188 128.996094 L 112.117188 122.902344 L 130.816406 122.902344 C 131.128906 122.902344 131.4375 122.933594 131.742188 122.992188 C 132.046875 123.054688 132.34375 123.144531 132.628906 123.261719 C 132.917969 123.382812 133.1875 123.527344 133.449219 123.699219 C 133.707031 123.875 133.945312 124.070312 134.164062 124.289062 C 134.382812 124.507812 134.582031 124.75 134.753906 125.007812 C 134.925781 125.265625 135.070312 125.539062 135.191406 125.828125 C 135.308594 126.113281 135.398438 126.410156 135.460938 126.714844 C 135.519531 127.019531 135.550781 127.328125 135.550781 127.640625 L 135.550781 128.996094 C 135.160156 129.121094 134.777344 129.269531 134.40625 129.4375 C 134.03125 129.609375 133.671875 129.796875 133.320312 130.011719 C 132.972656 130.222656 132.632812 130.457031 132.3125 130.707031 C 131.988281 130.960938 131.679688 131.230469 131.390625 131.519531 C 131.097656 131.808594 130.828125 132.113281 130.570312 132.433594 C 130.316406 132.753906 130.082031 133.085938 129.867188 133.4375 C 129.648438 133.785156 129.457031 134.144531 129.28125 134.515625 C 129.109375 134.886719 128.960938 135.269531 128.832031 135.65625 C 128.703125 136.046875 128.597656 136.441406 128.515625 136.84375 C 128.4375 137.246094 128.378906 137.652344 128.34375 138.058594 C 128.3125 138.46875 128.300781 138.878906 128.316406 139.289062 C 128.332031 139.695312 128.371094 140.105469 128.433594 140.507812 C 128.496094 140.914062 128.582031 141.316406 128.691406 141.710938 C 128.804688 142.105469 128.9375 142.492188 129.089844 142.871094 C 129.246094 143.25 129.425781 143.617188 129.625 143.976562 C 129.824219 144.335938 130.042969 144.679688 130.285156 145.011719 C 130.523438 145.34375 130.78125 145.660156 131.058594 145.960938 C 131.335938 146.261719 131.632812 146.546875 131.941406 146.8125 C 132.253906 147.082031 132.578125 147.328125 132.917969 147.554688 C 133.261719 147.785156 133.613281 147.992188 133.976562 148.179688 C 134.339844 148.363281 134.714844 148.527344 135.101562 148.671875 C 135.484375 148.8125 135.875 148.933594 136.273438 149.027344 C 136.671875 149.125 137.074219 149.195312 137.480469 149.246094 C 137.886719 149.292969 138.296875 149.316406 138.707031 149.316406 C 139.113281 149.316406 139.523438 149.292969 139.929688 149.246094 C 140.335938 149.195312 140.738281 149.125 141.136719 149.027344 C 141.535156 148.933594 141.925781 148.8125 142.308594 148.671875 C 142.695312 148.527344 143.070312 148.363281 143.433594 148.179688 C 143.796875 147.992188 144.152344 147.785156 144.492188 147.554688 C 144.832031 147.328125 145.15625 147.082031 145.46875 146.8125 C 145.777344 146.546875 146.074219 146.261719 146.351562 145.960938 C 146.628906 145.660156 146.886719 145.34375 147.128906 145.011719 C 147.367188 144.679688 147.585938 144.335938 147.785156 143.976562 C 147.984375 143.617188 148.164062 143.25 148.320312 142.871094 C 148.476562 142.492188 148.609375 142.105469 148.71875 141.710938 C 148.828125 141.316406 148.914062 140.914062 148.976562 140.507812 C 149.039062 140.105469 149.078125 139.695312 149.09375 139.289062 C 149.109375 138.878906 149.097656 138.46875 149.066406 138.058594 C 149.03125 137.652344 148.976562 137.246094 148.894531 136.84375 C 148.8125 136.441406 148.707031 136.046875 148.578125 135.65625 C 148.453125 135.269531 148.300781 134.886719 148.128906 134.515625 C 147.953125 134.144531 147.761719 133.785156 147.546875 133.4375 C 147.328125 133.085938 147.09375 132.753906 146.839844 132.433594 C 146.585938 132.113281 146.3125 131.808594 146.019531 131.519531 C 145.730469 131.230469 145.421875 130.960938 145.097656 130.707031 C 144.777344 130.457031 144.441406 130.222656 144.089844 130.011719 C 143.738281 129.796875 143.378906 129.609375 143.003906 129.4375 C 142.632812 129.269531 142.25 129.121094 141.859375 128.996094 L 141.859375 127.640625 C 141.859375 126.914062 141.789062 126.195312 141.648438 125.484375 C 141.507812 124.769531 141.296875 124.078125 141.019531 123.410156 C 140.742188 122.738281 140.402344 122.101562 140 121.5 C 139.597656 120.894531 139.140625 120.335938 138.625 119.824219 C 138.113281 119.3125 137.554688 118.851562 136.953125 118.449219 C 136.351562 118.046875 135.714844 117.707031 135.042969 117.429688 C 134.375 117.148438 133.683594 116.941406 132.972656 116.800781 C 132.261719 116.65625 131.542969 116.585938 130.816406 116.585938 L 78.117188 116.585938 L 78.117188 109.480469 L 106.066406 109.480469 C 106.792969 109.480469 107.511719 109.410156 108.222656 109.269531 C 108.933594 109.128906 109.625 108.917969 110.292969 108.640625 C 110.964844 108.363281 111.601562 108.023438 112.203125 107.617188 C 112.804688 107.214844 113.363281 106.757812 113.875 106.242188 C 114.386719 105.730469 114.847656 105.171875 115.25 104.570312 C 115.652344 103.964844 115.992188 103.328125 116.269531 102.660156 C 116.546875 101.988281 116.757812 101.296875 116.898438 100.585938 C 117.039062 99.875 117.109375 99.15625 117.109375 98.429688 L 117.109375 89.746094 C 135.550781 88.953125 149.101562 81.589844 149.101562 71.933594 L 149.101562 18.699219 C 149.101562 8.507812 133.988281 0.816406 113.957031 0.816406 Z M 35.964844 7.132812 C 52.472656 7.132812 64.808594 13.238281 64.808594 18.699219 C 64.808594 21.660156 61.085938 24.898438 55.09375 27.148438 C 48.898438 29.308594 42.523438 30.347656 35.964844 30.265625 C 29.414062 30.347656 23.042969 29.308594 16.855469 27.148438 C 10.851562 24.898438 7.128906 21.660156 7.128906 18.699219 C 7.128906 13.238281 19.464844 7.132812 35.964844 7.132812 Z M 7.128906 29.144531 C 9.457031 30.796875 11.960938 32.109375 14.640625 33.09375 C 21.527344 35.53125 28.625 36.707031 35.933594 36.613281 C 43.257812 36.710938 50.371094 35.535156 57.277344 33.09375 C 59.953125 32.109375 62.453125 30.796875 64.777344 29.144531 L 64.777344 41.515625 C 64.777344 46.980469 52.441406 53.082031 35.933594 53.082031 C 19.425781 53.082031 7.128906 46.980469 7.128906 41.515625 Z M 7.128906 71.933594 L 7.128906 52 C 13.375 56.539062 23.75 59.398438 35.964844 59.398438 C 48.183594 59.398438 58.5625 56.539062 64.808594 51.992188 L 64.808594 71.933594 C 64.808594 77.398438 52.472656 83.5 35.964844 83.5 C 19.457031 83.5 7.128906 77.398438 7.128906 71.933594 Z M 11.214844 142.921875 C 10.949219 142.925781 10.679688 142.898438 10.417969 142.847656 C 10.15625 142.792969 9.898438 142.71875 9.652344 142.613281 C 9.402344 142.511719 9.167969 142.386719 8.945312 142.238281 C 8.71875 142.089844 8.511719 141.921875 8.324219 141.730469 C 8.132812 141.539062 7.964844 141.335938 7.8125 141.109375 C 7.664062 140.886719 7.539062 140.652344 7.433594 140.40625 C 7.332031 140.15625 7.253906 139.902344 7.203125 139.636719 C 7.148438 139.375 7.121094 139.109375 7.121094 138.839844 C 7.121094 138.570312 7.148438 138.304688 7.199219 138.039062 C 7.25 137.777344 7.328125 137.523438 7.429688 137.273438 C 7.535156 137.023438 7.660156 136.789062 7.808594 136.566406 C 7.957031 136.34375 8.125 136.136719 8.316406 135.945312 C 8.503906 135.753906 8.710938 135.585938 8.933594 135.4375 C 9.15625 135.285156 9.394531 135.160156 9.640625 135.058594 C 9.890625 134.953125 10.144531 134.875 10.40625 134.824219 C 10.671875 134.769531 10.9375 134.746094 11.207031 134.746094 C 11.472656 134.746094 11.738281 134.769531 12.003906 134.824219 C 12.265625 134.875 12.523438 134.953125 12.769531 135.054688 C 13.015625 135.15625 13.253906 135.285156 13.476562 135.433594 C 13.699219 135.582031 13.90625 135.75 14.097656 135.941406 C 14.285156 136.132812 14.457031 136.335938 14.605469 136.5625 C 14.753906 136.785156 14.878906 137.019531 14.980469 137.269531 C 15.085938 137.515625 15.164062 137.773438 15.214844 138.035156 C 15.265625 138.300781 15.292969 138.566406 15.292969 138.832031 C 15.292969 139.101562 15.265625 139.367188 15.214844 139.628906 C 15.164062 139.894531 15.085938 140.148438 14.984375 140.398438 C 14.878906 140.644531 14.753906 140.878906 14.605469 141.101562 C 14.457031 141.328125 14.289062 141.53125 14.097656 141.722656 C 13.910156 141.914062 13.703125 142.082031 13.480469 142.230469 C 13.257812 142.378906 13.023438 142.507812 12.777344 142.609375 C 12.53125 142.710938 12.273438 142.789062 12.011719 142.84375 C 11.75 142.894531 11.484375 142.921875 11.214844 142.921875 Z M 40.957031 142.921875 C 40.691406 142.925781 40.425781 142.898438 40.160156 142.847656 C 39.898438 142.792969 39.640625 142.71875 39.394531 142.613281 C 39.144531 142.511719 38.910156 142.386719 38.6875 142.238281 C 38.464844 142.089844 38.257812 141.921875 38.066406 141.730469 C 37.875 141.539062 37.707031 141.335938 37.558594 141.109375 C 37.40625 140.886719 37.28125 140.652344 37.179688 140.40625 C 37.074219 140.15625 36.996094 139.902344 36.945312 139.636719 C 36.890625 139.375 36.867188 139.109375 36.863281 138.839844 C 36.863281 138.570312 36.890625 138.304688 36.941406 138.039062 C 36.996094 137.777344 37.070312 137.523438 37.175781 137.273438 C 37.277344 137.023438 37.402344 136.789062 37.550781 136.566406 C 37.699219 136.34375 37.871094 136.136719 38.058594 135.945312 C 38.25 135.753906 38.453125 135.585938 38.679688 135.4375 C 38.902344 135.285156 39.136719 135.160156 39.382812 135.058594 C 39.632812 134.953125 39.886719 134.875 40.152344 134.824219 C 40.414062 134.769531 40.679688 134.746094 40.949219 134.746094 C 41.214844 134.746094 41.480469 134.769531 41.746094 134.824219 C 42.007812 134.875 42.265625 134.953125 42.511719 135.054688 C 42.761719 135.15625 42.996094 135.285156 43.21875 135.433594 C 43.441406 135.582031 43.648438 135.75 43.839844 135.941406 C 44.027344 136.132812 44.199219 136.335938 44.347656 136.5625 C 44.496094 136.785156 44.621094 137.019531 44.726562 137.269531 C 44.828125 137.515625 44.90625 137.773438 44.957031 138.035156 C 45.011719 138.300781 45.035156 138.566406 45.035156 138.832031 C 45.035156 139.101562 45.011719 139.367188 44.957031 139.628906 C 44.90625 139.894531 44.828125 140.148438 44.726562 140.398438 C 44.625 140.644531 44.5 140.878906 44.347656 141.101562 C 44.199219 141.328125 44.03125 141.53125 43.84375 141.722656 C 43.652344 141.914062 43.445312 142.082031 43.226562 142.230469 C 43.003906 142.378906 42.765625 142.507812 42.519531 142.609375 C 42.273438 142.710938 42.015625 142.789062 41.753906 142.84375 C 41.492188 142.894531 41.226562 142.921875 40.957031 142.921875 Z M 79.496094 138.382812 C 79.496094 138.683594 79.46875 138.976562 79.410156 139.269531 C 79.351562 139.5625 79.265625 139.847656 79.152344 140.121094 C 79.039062 140.398438 78.902344 140.660156 78.734375 140.90625 C 78.570312 141.15625 78.382812 141.386719 78.171875 141.597656 C 77.960938 141.808594 77.734375 141.996094 77.484375 142.164062 C 77.238281 142.328125 76.976562 142.46875 76.703125 142.582031 C 76.425781 142.699219 76.144531 142.785156 75.851562 142.84375 C 75.558594 142.902344 75.265625 142.929688 74.964844 142.929688 C 74.667969 142.933594 74.371094 142.902344 74.082031 142.84375 C 73.789062 142.789062 73.503906 142.703125 73.230469 142.585938 C 72.953125 142.472656 72.691406 142.335938 72.445312 142.167969 C 72.195312 142.003906 71.96875 141.816406 71.757812 141.605469 C 71.546875 141.394531 71.359375 141.164062 71.191406 140.917969 C 71.027344 140.667969 70.886719 140.40625 70.773438 140.132812 C 70.65625 139.855469 70.570312 139.574219 70.511719 139.28125 C 70.453125 138.988281 70.425781 138.691406 70.425781 138.394531 C 70.425781 138.097656 70.453125 137.800781 70.511719 137.507812 C 70.570312 137.214844 70.65625 136.933594 70.769531 136.65625 C 70.882812 136.382812 71.023438 136.121094 71.1875 135.871094 C 71.355469 135.625 71.542969 135.394531 71.753906 135.183594 C 71.964844 134.972656 72.191406 134.785156 72.441406 134.617188 C 72.6875 134.453125 72.949219 134.3125 73.222656 134.199219 C 73.5 134.085938 73.785156 133.996094 74.074219 133.941406 C 74.367188 133.882812 74.664062 133.851562 74.960938 133.851562 C 75.257812 133.851562 75.550781 133.882812 75.84375 133.941406 C 76.136719 134 76.417969 134.085938 76.691406 134.199219 C 76.96875 134.3125 77.230469 134.453125 77.476562 134.617188 C 77.722656 134.785156 77.953125 134.972656 78.164062 135.179688 C 78.371094 135.390625 78.5625 135.621094 78.726562 135.867188 C 78.890625 136.113281 79.03125 136.375 79.144531 136.652344 C 79.261719 136.925781 79.347656 137.207031 79.40625 137.5 C 79.464844 137.792969 79.496094 138.085938 79.496094 138.382812 Z M 108.960938 142.921875 C 108.695312 142.921875 108.429688 142.898438 108.164062 142.84375 C 107.902344 142.792969 107.648438 142.714844 107.398438 142.613281 C 107.152344 142.507812 106.914062 142.382812 106.691406 142.234375 C 106.46875 142.085938 106.261719 141.914062 106.074219 141.726562 C 105.882812 141.535156 105.714844 141.328125 105.566406 141.105469 C 105.417969 140.882812 105.289062 140.648438 105.1875 140.398438 C 105.085938 140.152344 105.007812 139.894531 104.957031 139.632812 C 104.902344 139.367188 104.875 139.101562 104.875 138.832031 C 104.875 138.566406 104.902344 138.300781 104.957031 138.035156 C 105.007812 137.773438 105.085938 137.515625 105.1875 137.269531 C 105.289062 137.019531 105.417969 136.785156 105.566406 136.5625 C 105.714844 136.339844 105.882812 136.132812 106.074219 135.941406 C 106.261719 135.753906 106.46875 135.582031 106.691406 135.433594 C 106.914062 135.285156 107.152344 135.160156 107.398438 135.054688 C 107.648438 134.953125 107.902344 134.875 108.164062 134.824219 C 108.429688 134.769531 108.695312 134.746094 108.960938 134.746094 C 109.230469 134.746094 109.496094 134.769531 109.757812 134.824219 C 110.023438 134.875 110.277344 134.953125 110.527344 135.054688 C 110.773438 135.160156 111.007812 135.285156 111.230469 135.433594 C 111.457031 135.582031 111.660156 135.753906 111.851562 135.941406 C 112.042969 136.132812 112.210938 136.339844 112.359375 136.5625 C 112.507812 136.785156 112.632812 137.019531 112.738281 137.269531 C 112.839844 137.515625 112.917969 137.773438 112.96875 138.035156 C 113.023438 138.300781 113.046875 138.566406 113.046875 138.832031 C 113.046875 139.101562 113.023438 139.367188 112.96875 139.632812 C 112.917969 139.894531 112.839844 140.152344 112.738281 140.398438 C 112.632812 140.648438 112.507812 140.882812 112.359375 141.105469 C 112.210938 141.328125 112.042969 141.535156 111.851562 141.726562 C 111.660156 141.914062 111.457031 142.085938 111.230469 142.234375 C 111.007812 142.382812 110.773438 142.507812 110.527344 142.613281 C 110.277344 142.714844 110.023438 142.792969 109.757812 142.84375 C 109.496094 142.898438 109.230469 142.921875 108.960938 142.921875 Z M 138.707031 142.921875 C 138.4375 142.921875 138.171875 142.898438 137.910156 142.84375 C 137.644531 142.792969 137.390625 142.714844 137.140625 142.613281 C 136.894531 142.507812 136.660156 142.382812 136.4375 142.234375 C 136.210938 142.085938 136.007812 141.914062 135.816406 141.726562 C 135.625 141.535156 135.457031 141.328125 135.308594 141.105469 C 135.160156 140.882812 135.035156 140.648438 134.929688 140.398438 C 134.828125 140.152344 134.75 139.894531 134.699219 139.632812 C 134.644531 139.367188 134.621094 139.101562 134.621094 138.832031 C 134.621094 138.566406 134.644531 138.300781 134.699219 138.035156 C 134.75 137.773438 134.828125 137.515625 134.929688 137.269531 C 135.035156 137.019531 135.160156 136.785156 135.308594 136.5625 C 135.457031 136.339844 135.625 136.132812 135.816406 135.941406 C 136.007812 135.753906 136.210938 135.582031 136.4375 135.433594 C 136.660156 135.285156 136.894531 135.160156 137.140625 135.054688 C 137.390625 134.953125 137.644531 134.875 137.910156 134.824219 C 138.171875 134.769531 138.4375 134.746094 138.707031 134.746094 C 138.972656 134.746094 139.238281 134.769531 139.503906 134.824219 C 139.765625 134.875 140.019531 134.953125 140.269531 135.054688 C 140.515625 135.160156 140.753906 135.285156 140.976562 135.433594 C 141.199219 135.582031 141.40625 135.753906 141.59375 135.941406 C 141.785156 136.132812 141.953125 136.339844 142.101562 136.5625 C 142.25 136.785156 142.378906 137.019531 142.480469 137.269531 C 142.582031 137.515625 142.660156 137.773438 142.710938 138.035156 C 142.765625 138.300781 142.789062 138.566406 142.789062 138.832031 C 142.789062 139.101562 142.765625 139.367188 142.710938 139.632812 C 142.660156 139.894531 142.582031 140.152344 142.480469 140.398438 C 142.378906 140.648438 142.25 140.882812 142.101562 141.105469 C 141.953125 141.328125 141.785156 141.535156 141.59375 141.726562 C 141.40625 141.914062 141.199219 142.085938 140.976562 142.234375 C 140.753906 142.382812 140.515625 142.507812 140.269531 142.613281 C 140.019531 142.714844 139.765625 142.792969 139.503906 142.84375 C 139.238281 142.898438 138.972656 142.921875 138.707031 142.921875 Z M 113.957031 83.5 C 97.445312 83.5 85.121094 77.398438 85.113281 71.933594 L 85.113281 52 C 91.359375 56.539062 101.738281 59.398438 113.957031 59.398438 C 126.171875 59.398438 136.542969 56.539062 142.789062 52 L 142.789062 71.933594 C 142.789062 77.398438 130.464844 83.5 113.957031 83.5 Z M 113.957031 53.082031 C 97.496094 53.082031 85.183594 47.011719 85.113281 41.5625 L 85.113281 29.175781 C 91.359375 33.714844 101.738281 36.582031 113.957031 36.582031 C 126.171875 36.582031 136.542969 33.714844 142.789062 29.175781 L 142.789062 41.515625 C 142.789062 46.980469 130.464844 53.082031 113.957031 53.082031 Z M 113.957031 30.265625 C 97.445312 30.265625 85.113281 24.15625 85.113281 18.699219 C 85.113281 13.246094 97.445312 7.132812 113.957031 7.132812 C 130.464844 7.132812 142.789062 13.238281 142.789062 18.699219 C 142.789062 24.164062 130.457031 30.265625 113.957031 30.265625 Z M 113.957031 30.265625 " clip-rule="nonzero"/></clipPath><linearGradient x1="-0.000150849" gradientTransform="matrix(0.788726, 0, 0, 0.789474, 0.820317, 0.818178)" y1="94" x2="188.010127" gradientUnits="userSpaceOnUse" y2="94" id="670ba1130e"><stop stop-opacity="1" stop-color="rgb(61.199951%, 19.198608%, 100%)" offset="0"/><stop stop-opacity="1" stop-color="rgb(60.983276%, 19.386292%, 99.934387%)" offset="0.00390625"/><stop stop-opacity="1" stop-color="rgb(60.766602%, 19.573975%, 99.868774%)" offset="0.0078125"/><stop stop-opacity="1" stop-color="rgb(60.549927%, 19.761658%, 99.803162%)" offset="0.0117188"/><stop stop-opacity="1" stop-color="rgb(60.334778%, 19.949341%, 99.737549%)" offset="0.015625"/><stop stop-opacity="1" stop-color="rgb(60.118103%, 20.135498%, 99.671936%)" offset="0.0195312"/><stop stop-opacity="1" stop-color="rgb(59.902954%, 20.323181%, 99.606323%)" offset="0.0234375"/><stop stop-opacity="1" stop-color="rgb(59.686279%, 20.510864%, 99.54071%)" offset="0.0273438"/><stop stop-opacity="1" stop-color="rgb(59.47113%, 20.698547%, 99.476624%)" offset="0.03125"/><stop stop-opacity="1" stop-color="rgb(59.254456%, 20.884705%, 99.411011%)" offset="0.0351563"/><stop stop-opacity="1" stop-color="rgb(59.039307%, 21.072388%, 99.345398%)" offset="0.0390625"/><stop stop-opacity="1" stop-color="rgb(58.822632%, 21.260071%, 99.279785%)" offset="0.0429688"/><stop stop-opacity="1" stop-color="rgb(58.605957%, 21.447754%, 99.214172%)" offset="0.046875"/><stop stop-opacity="1" stop-color="rgb(58.389282%, 21.633911%, 99.14856%)" offset="0.0507813"/><stop stop-opacity="1" stop-color="rgb(58.174133%, 21.821594%, 99.084473%)" offset="0.0546875"/><stop stop-opacity="1" stop-color="rgb(57.957458%, 22.009277%, 99.01886%)" offset="0.0585938"/><stop stop-opacity="1" stop-color="rgb(57.74231%, 22.19696%, 98.953247%)" offset="0.0625"/><stop stop-opacity="1" stop-color="rgb(57.525635%, 22.383118%, 98.887634%)" offset="0.0664063"/><stop stop-opacity="1" stop-color="rgb(57.310486%, 22.570801%, 98.822021%)" offset="0.0703125"/><stop stop-opacity="1" stop-color="rgb(57.093811%, 22.758484%, 98.756409%)" offset="0.0742188"/><stop stop-opacity="1" stop-color="rgb(56.878662%, 22.946167%, 98.692322%)" offset="0.078125"/><stop stop-opacity="1" stop-color="rgb(56.661987%, 23.13385%, 98.626709%)" offset="0.0820313"/><stop stop-opacity="1" stop-color="rgb(56.446838%, 23.321533%, 98.561096%)" offset="0.0859375"/><stop stop-opacity="1" stop-color="rgb(56.230164%, 23.50769%, 98.495483%)" offset="0.0898438"/><stop stop-opacity="1" stop-color="rgb(56.013489%, 23.695374%, 98.429871%)" offset="0.09375"/><stop stop-opacity="1" stop-color="rgb(55.796814%, 23.883057%, 98.364258%)" offset="0.0976563"/><stop stop-opacity="1" stop-color="rgb(55.581665%, 24.07074%, 98.300171%)" offset="0.101563"/><stop stop-opacity="1" stop-color="rgb(55.36499%, 24.256897%, 98.234558%)" offset="0.105469"/><stop stop-opacity="1" stop-color="rgb(55.149841%, 24.44458%, 98.168945%)" offset="0.109375"/><stop stop-opacity="1" stop-color="rgb(54.933167%, 24.632263%, 98.103333%)" offset="0.113281"/><stop stop-opacity="1" stop-color="rgb(54.718018%, 24.819946%, 98.03772%)" offset="0.117188"/><stop stop-opacity="1" stop-color="rgb(54.501343%, 25.006104%, 97.972107%)" offset="0.121094"/><stop stop-opacity="1" stop-color="rgb(54.286194%, 25.193787%, 97.90802%)" offset="0.125"/><stop stop-opacity="1" stop-color="rgb(54.069519%, 25.38147%, 97.842407%)" offset="0.128906"/><stop stop-opacity="1" stop-color="rgb(53.852844%, 25.569153%, 97.776794%)" offset="0.132813"/><stop stop-opacity="1" stop-color="rgb(53.636169%, 25.756836%, 97.711182%)" offset="0.136719"/><stop stop-opacity="1" stop-color="rgb(53.421021%, 25.944519%, 97.645569%)" offset="0.140625"/><stop stop-opacity="1" stop-color="rgb(53.204346%, 26.130676%, 97.579956%)" offset="0.144531"/><stop stop-opacity="1" stop-color="rgb(52.989197%, 26.318359%, 97.514343%)" offset="0.148438"/><stop stop-opacity="1" stop-color="rgb(52.772522%, 26.506042%, 97.44873%)" offset="0.152344"/><stop stop-opacity="1" stop-color="rgb(52.557373%, 26.693726%, 97.384644%)" offset="0.15625"/><stop stop-opacity="1" stop-color="rgb(52.340698%, 26.879883%, 97.319031%)" offset="0.160156"/><stop stop-opacity="1" stop-color="rgb(52.125549%, 27.067566%, 97.253418%)" offset="0.164063"/><stop stop-opacity="1" stop-color="rgb(51.908875%, 27.255249%, 97.187805%)" offset="0.167969"/><stop stop-opacity="1" stop-color="rgb(51.693726%, 27.442932%, 97.122192%)" offset="0.171875"/><stop stop-opacity="1" stop-color="rgb(51.477051%, 27.629089%, 97.05658%)" offset="0.175781"/><stop stop-opacity="1" stop-color="rgb(51.260376%, 27.816772%, 96.992493%)" offset="0.179688"/><stop stop-opacity="1" stop-color="rgb(51.043701%, 28.004456%, 96.92688%)" offset="0.183594"/><stop stop-opacity="1" stop-color="rgb(50.828552%, 28.192139%, 96.861267%)" offset="0.1875"/><stop stop-opacity="1" stop-color="rgb(50.611877%, 28.378296%, 96.795654%)" offset="0.191406"/><stop stop-opacity="1" stop-color="rgb(50.396729%, 28.565979%, 96.730042%)" offset="0.195313"/><stop stop-opacity="1" stop-color="rgb(50.180054%, 28.753662%, 96.664429%)" offset="0.199219"/><stop stop-opacity="1" stop-color="rgb(49.964905%, 28.941345%, 96.600342%)" offset="0.203125"/><stop stop-opacity="1" stop-color="rgb(49.74823%, 29.129028%, 96.534729%)" offset="0.207031"/><stop stop-opacity="1" stop-color="rgb(49.533081%, 29.316711%, 96.469116%)" offset="0.210938"/><stop stop-opacity="1" stop-color="rgb(49.316406%, 29.502869%, 96.403503%)" offset="0.214844"/><stop stop-opacity="1" stop-color="rgb(49.099731%, 29.690552%, 96.337891%)" offset="0.21875"/><stop stop-opacity="1" stop-color="rgb(48.883057%, 29.878235%, 96.272278%)" offset="0.222656"/><stop stop-opacity="1" stop-color="rgb(48.667908%, 30.065918%, 96.208191%)" offset="0.226563"/><stop stop-opacity="1" stop-color="rgb(48.451233%, 30.252075%, 96.142578%)" offset="0.230469"/><stop stop-opacity="1" stop-color="rgb(48.236084%, 30.439758%, 96.076965%)" offset="0.234375"/><stop stop-opacity="1" stop-color="rgb(48.019409%, 30.627441%, 96.011353%)" offset="0.238281"/><stop stop-opacity="1" stop-color="rgb(47.80426%, 30.815125%, 95.94574%)" offset="0.242188"/><stop stop-opacity="1" stop-color="rgb(47.587585%, 31.001282%, 95.880127%)" offset="0.246094"/><stop stop-opacity="1" stop-color="rgb(47.372437%, 31.188965%, 95.81604%)" offset="0.25"/><stop stop-opacity="1" stop-color="rgb(47.155762%, 31.376648%, 95.750427%)" offset="0.253906"/><stop stop-opacity="1" stop-color="rgb(46.940613%, 31.564331%, 95.684814%)" offset="0.257813"/><stop stop-opacity="1" stop-color="rgb(46.723938%, 31.752014%, 95.619202%)" offset="0.261719"/><stop stop-opacity="1" stop-color="rgb(46.507263%, 31.939697%, 95.553589%)" offset="0.265625"/><stop stop-opacity="1" stop-color="rgb(46.290588%, 32.125854%, 95.487976%)" offset="0.269531"/><stop stop-opacity="1" stop-color="rgb(46.075439%, 32.313538%, 95.422363%)" offset="0.273438"/><stop stop-opacity="1" stop-color="rgb(45.858765%, 32.501221%, 95.35675%)" offset="0.277344"/><stop stop-opacity="1" stop-color="rgb(45.643616%, 32.688904%, 95.292664%)" offset="0.28125"/><stop stop-opacity="1" stop-color="rgb(45.426941%, 32.875061%, 95.227051%)" offset="0.285156"/><stop stop-opacity="1" stop-color="rgb(45.211792%, 33.062744%, 95.161438%)" offset="0.289063"/><stop stop-opacity="1" stop-color="rgb(44.995117%, 33.250427%, 95.095825%)" offset="0.292969"/><stop stop-opacity="1" stop-color="rgb(44.779968%, 33.43811%, 95.030212%)" offset="0.296875"/><stop stop-opacity="1" stop-color="rgb(44.563293%, 33.624268%, 94.9646%)" offset="0.300781"/><stop stop-opacity="1" stop-color="rgb(44.346619%, 33.811951%, 94.900513%)" offset="0.304688"/><stop stop-opacity="1" stop-color="rgb(44.129944%, 33.999634%, 94.8349%)" offset="0.308594"/><stop stop-opacity="1" stop-color="rgb(43.914795%, 34.187317%, 94.769287%)" offset="0.3125"/><stop stop-opacity="1" stop-color="rgb(43.69812%, 34.375%, 94.703674%)" offset="0.316406"/><stop stop-opacity="1" stop-color="rgb(43.482971%, 34.562683%, 94.638062%)" offset="0.320313"/><stop stop-opacity="1" stop-color="rgb(43.266296%, 34.74884%, 94.572449%)" offset="0.324219"/><stop stop-opacity="1" stop-color="rgb(43.051147%, 34.936523%, 94.508362%)" offset="0.328125"/><stop stop-opacity="1" stop-color="rgb(42.834473%, 35.124207%, 94.442749%)" offset="0.332031"/><stop stop-opacity="1" stop-color="rgb(42.619324%, 35.31189%, 94.377136%)" offset="0.335938"/><stop stop-opacity="1" stop-color="rgb(42.402649%, 35.498047%, 94.311523%)" offset="0.339844"/><stop stop-opacity="1" stop-color="rgb(42.1875%, 35.68573%, 94.245911%)" offset="0.34375"/><stop stop-opacity="1" stop-color="rgb(41.970825%, 35.873413%, 94.180298%)" offset="0.347656"/><stop stop-opacity="1" stop-color="rgb(41.75415%, 36.061096%, 94.116211%)" offset="0.351563"/><stop stop-opacity="1" stop-color="rgb(41.537476%, 36.247253%, 94.050598%)" offset="0.355469"/><stop stop-opacity="1" stop-color="rgb(41.322327%, 36.434937%, 93.984985%)" offset="0.359375"/><stop stop-opacity="1" stop-color="rgb(41.105652%, 36.62262%, 93.919373%)" offset="0.363281"/><stop stop-opacity="1" stop-color="rgb(40.890503%, 36.810303%, 93.85376%)" offset="0.367188"/><stop stop-opacity="1" stop-color="rgb(40.673828%, 36.99646%, 93.788147%)" offset="0.371094"/><stop stop-opacity="1" stop-color="rgb(40.458679%, 37.184143%, 93.72406%)" offset="0.375"/><stop stop-opacity="1" stop-color="rgb(40.242004%, 37.371826%, 93.658447%)" offset="0.378906"/><stop stop-opacity="1" stop-color="rgb(40.026855%, 37.559509%, 93.592834%)" offset="0.382813"/><stop stop-opacity="1" stop-color="rgb(39.810181%, 37.747192%, 93.527222%)" offset="0.386719"/><stop stop-opacity="1" stop-color="rgb(39.593506%, 37.934875%, 93.461609%)" offset="0.390625"/><stop stop-opacity="1" stop-color="rgb(39.376831%, 38.121033%, 93.395996%)" offset="0.394531"/><stop stop-opacity="1" stop-color="rgb(39.161682%, 38.308716%, 93.331909%)" offset="0.398438"/><stop stop-opacity="1" stop-color="rgb(38.945007%, 38.496399%, 93.266296%)" offset="0.402344"/><stop stop-opacity="1" stop-color="rgb(38.729858%, 38.684082%, 93.200684%)" offset="0.40625"/><stop stop-opacity="1" stop-color="rgb(38.513184%, 38.870239%, 93.135071%)" offset="0.410156"/><stop stop-opacity="1" stop-color="rgb(38.298035%, 39.057922%, 93.069458%)" offset="0.414063"/><stop stop-opacity="1" stop-color="rgb(38.08136%, 39.245605%, 93.003845%)" offset="0.417969"/><stop stop-opacity="1" stop-color="rgb(37.866211%, 39.433289%, 92.938232%)" offset="0.421875"/><stop stop-opacity="1" stop-color="rgb(37.649536%, 39.619446%, 92.87262%)" offset="0.425781"/><stop stop-opacity="1" stop-color="rgb(37.434387%, 39.807129%, 92.808533%)" offset="0.429688"/><stop stop-opacity="1" stop-color="rgb(37.217712%, 39.994812%, 92.74292%)" offset="0.433594"/><stop stop-opacity="1" stop-color="rgb(37.001038%, 40.182495%, 92.677307%)" offset="0.4375"/><stop stop-opacity="1" stop-color="rgb(36.784363%, 40.370178%, 92.611694%)" offset="0.441406"/><stop stop-opacity="1" stop-color="rgb(36.569214%, 40.557861%, 92.546082%)" offset="0.445313"/><stop stop-opacity="1" stop-color="rgb(36.352539%, 40.744019%, 92.480469%)" offset="0.449219"/><stop stop-opacity="1" stop-color="rgb(36.13739%, 40.931702%, 92.416382%)" offset="0.453125"/><stop stop-opacity="1" stop-color="rgb(35.920715%, 41.119385%, 92.350769%)" offset="0.457031"/><stop stop-opacity="1" stop-color="rgb(35.705566%, 41.307068%, 92.285156%)" offset="0.460938"/><stop stop-opacity="1" stop-color="rgb(35.488892%, 41.493225%, 92.219543%)" offset="0.464844"/><stop stop-opacity="1" stop-color="rgb(35.273743%, 41.680908%, 92.153931%)" offset="0.46875"/><stop stop-opacity="1" stop-color="rgb(35.057068%, 41.868591%, 92.088318%)" offset="0.472656"/><stop stop-opacity="1" stop-color="rgb(34.840393%, 42.056274%, 92.024231%)" offset="0.476563"/><stop stop-opacity="1" stop-color="rgb(34.623718%, 42.242432%, 91.958618%)" offset="0.480469"/><stop stop-opacity="1" stop-color="rgb(34.408569%, 42.430115%, 91.893005%)" offset="0.484375"/><stop stop-opacity="1" stop-color="rgb(34.196472%, 42.616272%, 91.828918%)" offset="0.488281"/><stop stop-opacity="1" stop-color="rgb(33.984375%, 42.802429%, 91.764832%)" offset="0.492188"/><stop stop-opacity="1" stop-color="rgb(33.779907%, 42.982483%, 91.703796%)" offset="0.496094"/><stop stop-opacity="1" stop-color="rgb(33.576965%, 43.162537%, 91.644287%)" offset="0.5"/><stop stop-opacity="1" stop-color="rgb(33.372498%, 43.34259%, 91.583252%)" offset="0.503906"/><stop stop-opacity="1" stop-color="rgb(33.16803%, 43.52417%, 91.522217%)" offset="0.507813"/><stop stop-opacity="1" stop-color="rgb(32.963562%, 43.704224%, 91.461182%)" offset="0.511719"/><stop stop-opacity="1" stop-color="rgb(32.76062%, 43.885803%, 91.401672%)" offset="0.515625"/><stop stop-opacity="1" stop-color="rgb(32.556152%, 44.065857%, 91.340637%)" offset="0.519531"/><stop stop-opacity="1" stop-color="rgb(32.35321%, 44.247437%, 91.281128%)" offset="0.523438"/><stop stop-opacity="1" stop-color="rgb(32.148743%, 44.42749%, 91.220093%)" offset="0.527344"/><stop stop-opacity="1" stop-color="rgb(31.945801%, 44.60907%, 91.160583%)" offset="0.53125"/><stop stop-opacity="1" stop-color="rgb(31.741333%, 44.789124%, 91.099548%)" offset="0.535156"/><stop stop-opacity="1" stop-color="rgb(31.538391%, 44.970703%, 91.038513%)" offset="0.539063"/><stop stop-opacity="1" stop-color="rgb(31.333923%, 45.150757%, 90.977478%)" offset="0.542969"/><stop stop-opacity="1" stop-color="rgb(31.130981%, 45.332336%, 90.917969%)" offset="0.546875"/><stop stop-opacity="1" stop-color="rgb(30.926514%, 45.51239%, 90.856934%)" offset="0.550781"/><stop stop-opacity="1" stop-color="rgb(30.723572%, 45.69397%, 90.797424%)" offset="0.554688"/><stop stop-opacity="1" stop-color="rgb(30.519104%, 45.874023%, 90.736389%)" offset="0.558594"/><stop stop-opacity="1" stop-color="rgb(30.316162%, 46.055603%, 90.675354%)" offset="0.5625"/><stop stop-opacity="1" stop-color="rgb(30.111694%, 46.235657%, 90.614319%)" offset="0.566406"/><stop stop-opacity="1" stop-color="rgb(29.908752%, 46.417236%, 90.55481%)" offset="0.570313"/><stop stop-opacity="1" stop-color="rgb(29.704285%, 46.59729%, 90.493774%)" offset="0.574219"/><stop stop-opacity="1" stop-color="rgb(29.501343%, 46.77887%, 90.434265%)" offset="0.578125"/><stop stop-opacity="1" stop-color="rgb(29.296875%, 46.958923%, 90.37323%)" offset="0.582031"/><stop stop-opacity="1" stop-color="rgb(29.093933%, 47.140503%, 90.312195%)" offset="0.585938"/><stop stop-opacity="1" stop-color="rgb(28.889465%, 47.320557%, 90.25116%)" offset="0.589844"/><stop stop-opacity="1" stop-color="rgb(28.686523%, 47.502136%, 90.19165%)" offset="0.59375"/><stop stop-opacity="1" stop-color="rgb(28.482056%, 47.68219%, 90.130615%)" offset="0.597656"/><stop stop-opacity="1" stop-color="rgb(28.279114%, 47.86377%, 90.071106%)" offset="0.601563"/><stop stop-opacity="1" stop-color="rgb(28.074646%, 48.043823%, 90.010071%)" offset="0.605469"/><stop stop-opacity="1" stop-color="rgb(27.871704%, 48.225403%, 89.949036%)" offset="0.609375"/><stop stop-opacity="1" stop-color="rgb(27.667236%, 48.405457%, 89.888%)" offset="0.613281"/><stop stop-opacity="1" stop-color="rgb(27.464294%, 48.587036%, 89.828491%)" offset="0.617188"/><stop stop-opacity="1" stop-color="rgb(27.259827%, 48.76709%, 89.767456%)" offset="0.621094"/><stop stop-opacity="1" stop-color="rgb(27.056885%, 48.947144%, 89.707947%)" offset="0.625"/><stop stop-opacity="1" stop-color="rgb(26.852417%, 49.127197%, 89.646912%)" offset="0.628906"/><stop stop-opacity="1" stop-color="rgb(26.649475%, 49.308777%, 89.585876%)" offset="0.632813"/><stop stop-opacity="1" stop-color="rgb(26.445007%, 49.488831%, 89.524841%)" offset="0.636719"/><stop stop-opacity="1" stop-color="rgb(26.242065%, 49.67041%, 89.465332%)" offset="0.640625"/><stop stop-opacity="1" stop-color="rgb(26.037598%, 49.850464%, 89.404297%)" offset="0.644531"/><stop stop-opacity="1" stop-color="rgb(25.83313%, 50.032043%, 89.344788%)" offset="0.648438"/><stop stop-opacity="1" stop-color="rgb(25.628662%, 50.212097%, 89.283752%)" offset="0.652344"/><stop stop-opacity="1" stop-color="rgb(25.42572%, 50.393677%, 89.222717%)" offset="0.65625"/><stop stop-opacity="1" stop-color="rgb(25.221252%, 50.57373%, 89.161682%)" offset="0.660156"/><stop stop-opacity="1" stop-color="rgb(25.018311%, 50.75531%, 89.102173%)" offset="0.664063"/><stop stop-opacity="1" stop-color="rgb(24.813843%, 50.935364%, 89.041138%)" offset="0.667969"/><stop stop-opacity="1" stop-color="rgb(24.610901%, 51.116943%, 88.981628%)" offset="0.671875"/><stop stop-opacity="1" stop-color="rgb(24.406433%, 51.296997%, 88.920593%)" offset="0.675781"/><stop stop-opacity="1" stop-color="rgb(24.203491%, 51.478577%, 88.861084%)" offset="0.679688"/><stop stop-opacity="1" stop-color="rgb(23.999023%, 51.65863%, 88.800049%)" offset="0.683594"/><stop stop-opacity="1" stop-color="rgb(23.796082%, 51.84021%, 88.739014%)" offset="0.6875"/><stop stop-opacity="1" stop-color="rgb(23.591614%, 52.020264%, 88.677979%)" offset="0.691406"/><stop stop-opacity="1" stop-color="rgb(23.388672%, 52.201843%, 88.618469%)" offset="0.695313"/><stop stop-opacity="1" stop-color="rgb(23.184204%, 52.381897%, 88.557434%)" offset="0.699219"/><stop stop-opacity="1" stop-color="rgb(22.981262%, 52.563477%, 88.497925%)" offset="0.703125"/><stop stop-opacity="1" stop-color="rgb(22.776794%, 52.74353%, 88.43689%)" offset="0.707031"/><stop stop-opacity="1" stop-color="rgb(22.573853%, 52.92511%, 88.375854%)" offset="0.710938"/><stop stop-opacity="1" stop-color="rgb(22.369385%, 53.105164%, 88.314819%)" offset="0.714844"/><stop stop-opacity="1" stop-color="rgb(22.166443%, 53.286743%, 88.25531%)" offset="0.71875"/><stop stop-opacity="1" stop-color="rgb(21.961975%, 53.466797%, 88.194275%)" offset="0.722656"/><stop stop-opacity="1" stop-color="rgb(21.759033%, 53.648376%, 88.134766%)" offset="0.726563"/><stop stop-opacity="1" stop-color="rgb(21.554565%, 53.82843%, 88.07373%)" offset="0.730469"/><stop stop-opacity="1" stop-color="rgb(21.351624%, 54.01001%, 88.012695%)" offset="0.734375"/><stop stop-opacity="1" stop-color="rgb(21.147156%, 54.190063%, 87.95166%)" offset="0.738281"/><stop stop-opacity="1" stop-color="rgb(20.944214%, 54.371643%, 87.892151%)" offset="0.742188"/><stop stop-opacity="1" stop-color="rgb(20.739746%, 54.551697%, 87.831116%)" offset="0.746094"/><stop stop-opacity="1" stop-color="rgb(20.536804%, 54.73175%, 87.771606%)" offset="0.75"/><stop stop-opacity="1" stop-color="rgb(20.332336%, 54.911804%, 87.710571%)" offset="0.753906"/><stop stop-opacity="1" stop-color="rgb(20.129395%, 55.093384%, 87.649536%)" offset="0.757813"/><stop stop-opacity="1" stop-color="rgb(19.924927%, 55.273438%, 87.588501%)" offset="0.761719"/><stop stop-opacity="1" stop-color="rgb(19.721985%, 55.455017%, 87.528992%)" offset="0.765625"/><stop stop-opacity="1" stop-color="rgb(19.517517%, 55.635071%, 87.467957%)" offset="0.769531"/><stop stop-opacity="1" stop-color="rgb(19.314575%, 55.81665%, 87.408447%)" offset="0.773438"/><stop stop-opacity="1" stop-color="rgb(19.110107%, 55.996704%, 87.347412%)" offset="0.777344"/><stop stop-opacity="1" stop-color="rgb(18.90564%, 56.178284%, 87.286377%)" offset="0.78125"/><stop stop-opacity="1" stop-color="rgb(18.701172%, 56.358337%, 87.225342%)" offset="0.785156"/><stop stop-opacity="1" stop-color="rgb(18.49823%, 56.539917%, 87.165833%)" offset="0.789063"/><stop stop-opacity="1" stop-color="rgb(18.293762%, 56.719971%, 87.104797%)" offset="0.792969"/><stop stop-opacity="1" stop-color="rgb(18.09082%, 56.90155%, 87.045288%)" offset="0.796875"/><stop stop-opacity="1" stop-color="rgb(17.886353%, 57.081604%, 86.984253%)" offset="0.800781"/><stop stop-opacity="1" stop-color="rgb(17.683411%, 57.263184%, 86.924744%)" offset="0.804688"/><stop stop-opacity="1" stop-color="rgb(17.478943%, 57.443237%, 86.863708%)" offset="0.808594"/><stop stop-opacity="1" stop-color="rgb(17.276001%, 57.624817%, 86.802673%)" offset="0.8125"/><stop stop-opacity="1" stop-color="rgb(17.071533%, 57.804871%, 86.741638%)" offset="0.816406"/><stop stop-opacity="1" stop-color="rgb(16.868591%, 57.98645%, 86.682129%)" offset="0.820313"/><stop stop-opacity="1" stop-color="rgb(16.664124%, 58.166504%, 86.621094%)" offset="0.824219"/><stop stop-opacity="1" stop-color="rgb(16.461182%, 58.348083%, 86.561584%)" offset="0.828125"/><stop stop-opacity="1" stop-color="rgb(16.256714%, 58.528137%, 86.500549%)" offset="0.832031"/><stop stop-opacity="1" stop-color="rgb(16.053772%, 58.709717%, 86.439514%)" offset="0.835938"/><stop stop-opacity="1" stop-color="rgb(15.849304%, 58.889771%, 86.378479%)" offset="0.839844"/><stop stop-opacity="1" stop-color="rgb(15.646362%, 59.07135%, 86.31897%)" offset="0.84375"/><stop stop-opacity="1" stop-color="rgb(15.441895%, 59.251404%, 86.257935%)" offset="0.847656"/><stop stop-opacity="1" stop-color="rgb(15.238953%, 59.432983%, 86.198425%)" offset="0.851563"/><stop stop-opacity="1" stop-color="rgb(15.034485%, 59.613037%, 86.13739%)" offset="0.855469"/><stop stop-opacity="1" stop-color="rgb(14.831543%, 59.794617%, 86.076355%)" offset="0.859375"/><stop stop-opacity="1" stop-color="rgb(14.627075%, 59.97467%, 86.01532%)" offset="0.863281"/><stop stop-opacity="1" stop-color="rgb(14.424133%, 60.15625%, 85.955811%)" offset="0.867188"/><stop stop-opacity="1" stop-color="rgb(14.219666%, 60.336304%, 85.894775%)" offset="0.871094"/><stop stop-opacity="1" stop-color="rgb(14.016724%, 60.516357%, 85.835266%)" offset="0.875"/><stop stop-opacity="1" stop-color="rgb(13.812256%, 60.696411%, 85.774231%)" offset="0.878906"/><stop stop-opacity="1" stop-color="rgb(13.609314%, 60.877991%, 85.713196%)" offset="0.882813"/><stop stop-opacity="1" stop-color="rgb(13.404846%, 61.058044%, 85.652161%)" offset="0.886719"/><stop stop-opacity="1" stop-color="rgb(13.201904%, 61.239624%, 85.592651%)" offset="0.890625"/><stop stop-opacity="1" stop-color="rgb(12.997437%, 61.419678%, 85.531616%)" offset="0.894531"/><stop stop-opacity="1" stop-color="rgb(12.794495%, 61.601257%, 85.472107%)" offset="0.898438"/><stop stop-opacity="1" stop-color="rgb(12.590027%, 61.781311%, 85.411072%)" offset="0.902344"/><stop stop-opacity="1" stop-color="rgb(12.387085%, 61.962891%, 85.350037%)" offset="0.90625"/><stop stop-opacity="1" stop-color="rgb(12.182617%, 62.142944%, 85.289001%)" offset="0.910156"/><stop stop-opacity="1" stop-color="rgb(11.978149%, 62.324524%, 85.229492%)" offset="0.914063"/><stop stop-opacity="1" stop-color="rgb(11.773682%, 62.504578%, 85.168457%)" offset="0.917969"/><stop stop-opacity="1" stop-color="rgb(11.57074%, 62.686157%, 85.108948%)" offset="0.921875"/><stop stop-opacity="1" stop-color="rgb(11.366272%, 62.866211%, 85.047913%)" offset="0.925781"/><stop stop-opacity="1" stop-color="rgb(11.16333%, 63.047791%, 84.986877%)" offset="0.929688"/><stop stop-opacity="1" stop-color="rgb(10.958862%, 63.227844%, 84.925842%)" offset="0.933594"/><stop stop-opacity="1" stop-color="rgb(10.75592%, 63.409424%, 84.866333%)" offset="0.9375"/><stop stop-opacity="1" stop-color="rgb(10.551453%, 63.589478%, 84.805298%)" offset="0.941406"/><stop stop-opacity="1" stop-color="rgb(10.348511%, 63.771057%, 84.745789%)" offset="0.945313"/><stop stop-opacity="1" stop-color="rgb(10.144043%, 63.951111%, 84.684753%)" offset="0.949219"/><stop stop-opacity="1" stop-color="rgb(9.941101%, 64.13269%, 84.625244%)" offset="0.953125"/><stop stop-opacity="1" stop-color="rgb(9.736633%, 64.312744%, 84.564209%)" offset="0.957031"/><stop stop-opacity="1" stop-color="rgb(9.533691%, 64.494324%, 84.503174%)" offset="0.960938"/><stop stop-opacity="1" stop-color="rgb(9.329224%, 64.674377%, 84.442139%)" offset="0.964844"/><stop stop-opacity="1" stop-color="rgb(9.126282%, 64.855957%, 84.382629%)" offset="0.96875"/><stop stop-opacity="1" stop-color="rgb(8.921814%, 65.036011%, 84.321594%)" offset="0.972656"/><stop stop-opacity="1" stop-color="rgb(8.718872%, 65.21759%, 84.262085%)" offset="0.976563"/><stop stop-opacity="1" stop-color="rgb(8.514404%, 65.397644%, 84.20105%)" offset="0.980469"/><stop stop-opacity="1" stop-color="rgb(8.311462%, 65.579224%, 84.140015%)" offset="0.984375"/><stop stop-opacity="1" stop-color="rgb(8.106995%, 65.759277%, 84.078979%)" offset="0.988281"/><stop stop-opacity="1" stop-color="rgb(7.904053%, 65.940857%, 84.01947%)" offset="0.992188"/><stop stop-opacity="1" stop-color="rgb(7.701111%, 66.119385%, 83.958435%)" offset="0.996094"/><stop stop-opacity="1" stop-color="rgb(7.499695%, 66.299438%, 83.898926%)" offset="1"/></linearGradient></defs><g clip-path="url(#a95c31e77c)"><g clip-path="url(#fb5604ff3f)"><path fill="url(#670ba1130e)" d="M 0.820312 0.816406 L 0.820312 149.316406 L 149.109375 149.316406 L 149.109375 0.816406 Z M 0.820312 0.816406 " fill-rule="nonzero"/></g></g></svg>