<svg xmlns="http://www.w3.org/2000/svg" xmlns:xlink="http://www.w3.org/1999/xlink" width="40" zoomAndPan="magnify" viewBox="0 0 30 30.000001" height="40" preserveAspectRatio="xMidYMid meet" version="1.0"><defs><clipPath id="95a873146b"><path d="M 1.210938 0.726562 L 28.789062 0.726562 L 28.789062 28.304688 L 1.210938 28.304688 Z M 1.210938 0.726562 " clip-rule="nonzero"/></clipPath><clipPath id="37bb689086"><path d="M 0.484375 14.515625 C 0.484375 22.53125 6.984375 29.03125 15 29.03125 C 23.015625 29.03125 29.515625 22.53125 29.515625 14.515625 C 29.515625 6.5 23.015625 0 15 0 C 6.984375 0 0.484375 6.5 0.484375 14.515625 Z M 0.484375 14.515625 " clip-rule="nonzero"/></clipPath><clipPath id="037f43c74e"><path d="M 15 0.871094 C 22.535156 0.871094 28.644531 6.980469 28.644531 14.515625 C 28.644531 22.050781 22.535156 28.160156 15 28.160156 C 7.464844 28.160156 1.355469 22.050781 1.355469 14.515625 C 1.355469 6.980469 7.464844 0.871094 15 0.871094 Z M 15 0.871094 " clip-rule="nonzero"/></clipPath><clipPath id="90569403eb"><path d="M 0.484375 0 L 29.515625 0 L 29.515625 29.03125 L 0.484375 29.03125 Z M 0.484375 0 " clip-rule="nonzero"/></clipPath><clipPath id="10e2d3a22f"><path d="M 0.484375 14.515625 C 0.484375 22.53125 6.984375 29.03125 15 29.03125 C 23.015625 29.03125 29.515625 22.53125 29.515625 14.515625 C 29.515625 6.5 23.015625 0 15 0 C 6.984375 0 0.484375 6.5 0.484375 14.515625 Z M 0.484375 14.515625 " clip-rule="nonzero"/></clipPath><clipPath id="df6d16206c"><path d="M 0.484375 14.515625 C 0.484375 22.53125 6.984375 29.03125 15 29.03125 C 23.015625 29.03125 29.515625 22.53125 29.515625 14.515625 C 29.515625 6.5 23.015625 0 15 0 C 6.984375 0 0.484375 6.5 0.484375 14.515625 Z M 0.484375 14.515625 " clip-rule="nonzero"/></clipPath><clipPath id="c3d8ba5498"><path d="M 2.945312 2.902344 L 26.894531 2.902344 L 26.894531 23.226562 L 2.945312 23.226562 Z M 2.945312 2.902344 " clip-rule="nonzero"/></clipPath></defs><g clip-path="url(#95a873146b)"><g clip-path="url(#37bb689086)"><g clip-path="url(#037f43c74e)"><path fill="#000000" d="M 15 29.03125 C 6.980469 29.03125 0.484375 22.492188 0.484375 14.515625 C 0.484375 6.542969 6.980469 0 15 0 C 23.019531 0 29.515625 6.496094 29.515625 14.515625 C 29.515625 22.535156 22.976562 29.03125 15 29.03125 Z M 15 0.894531 C 7.472656 0.894531 1.378906 6.988281 1.378906 14.515625 C 1.378906 22.042969 7.472656 28.136719 15 28.136719 C 22.527344 28.136719 28.621094 22.042969 28.621094 14.515625 C 28.621094 6.988281 22.480469 0.894531 15 0.894531 Z M 15 0.894531 " fill-opacity="1" fill-rule="nonzero"/></g></g></g><g clip-path="url(#90569403eb)"><g clip-path="url(#10e2d3a22f)"><g clip-path="url(#df6d16206c)"><path stroke-linecap="butt" transform="matrix(0.725806, 0, 0, 0.725806, 0.48387, 0.00000193548)" fill="none" stroke-linejoin="miter" d="M 0.000695111 19.999303 C 0.000695111 31.043053 8.956251 39.998609 20.000001 39.998609 C 31.043751 39.998609 39.999307 31.043053 39.999307 19.999303 C 39.999307 8.955553 31.043751 -0.00000266667 20.000001 -0.00000266667 C 8.956251 -0.00000266667 0.000695111 8.955553 0.000695111 19.999303 Z M 0.000695111 19.999303 " stroke="#ffffff" stroke-width="4" stroke-opacity="1" stroke-miterlimit="4"/></g></g></g><g clip-path="url(#c3d8ba5498)"><path fill="#ffffff" d="M 12.410156 23.019531 L 12.410156 15.921875 L 17.144531 15.921875 L 17.144531 23.019531 L 23.0625 23.019531 L 23.0625 13.554688 L 26.613281 13.554688 L 14.777344 2.902344 L 2.945312 13.554688 L 6.492188 13.554688 L 6.492188 23.019531 Z M 12.410156 23.019531 " fill-opacity="1" fill-rule="nonzero"/></g></svg>