<svg xmlns="http://www.w3.org/2000/svg" xmlns:xlink="http://www.w3.org/1999/xlink" width="40" zoomAndPan="magnify" viewBox="0 0 30 30.000001" height="40" preserveAspectRatio="xMidYMid meet" version="1.0"><defs><clipPath id="77dbbef7b4"><path d="M 15 0 L 21.980469 0 L 21.980469 26 L 15 26 Z M 15 0 " clip-rule="nonzero"/></clipPath><clipPath id="4e0efb12e7"><path d="M 8.191406 0 L 16 0 L 16 26 L 8.191406 26 Z M 8.191406 0 " clip-rule="nonzero"/></clipPath><clipPath id="9e32f2fdae"><path d="M 14 21 L 17 21 L 17 29.03125 L 14 29.03125 Z M 14 21 " clip-rule="nonzero"/></clipPath></defs><g clip-path="url(#77dbbef7b4)"><path fill="#599636" d="M 15.039062 0.078125 L 15.824219 1.535156 C 16 1.800781 16.191406 2.039062 16.417969 2.261719 C 17.074219 2.910156 17.699219 3.589844 18.261719 4.316406 C 19.589844 6.042969 20.488281 7.957031 21.128906 10.027344 C 21.511719 11.289062 21.722656 12.589844 21.738281 13.898438 C 21.800781 17.820312 20.4375 21.191406 17.691406 23.988281 C 17.242188 24.429688 16.761719 24.839844 16.25 25.207031 C 15.976562 25.207031 15.847656 25 15.734375 24.8125 C 15.527344 24.464844 15.398438 24.066406 15.335938 23.671875 C 15.238281 23.199219 15.175781 22.722656 15.207031 22.234375 L 15.207031 22.011719 C 15.183594 21.964844 14.945312 0.191406 15.039062 0.078125 Z M 15.039062 0.078125 " fill-opacity="1" fill-rule="nonzero"/></g><g clip-path="url(#4e0efb12e7)"><path fill="#6cac48" d="M 15.039062 0.03125 C 15.007812 -0.03125 14.976562 0.015625 14.941406 0.046875 C 14.957031 0.363281 14.847656 0.648438 14.671875 0.917969 C 14.476562 1.1875 14.222656 1.390625 13.964844 1.613281 C 12.539062 2.832031 11.417969 4.300781 10.519531 5.945312 C 9.324219 8.160156 8.710938 10.53125 8.535156 13.03125 C 8.457031 13.929688 8.824219 17.109375 9.113281 18.027344 C 9.898438 20.460938 11.308594 22.503906 13.132812 24.273438 C 13.582031 24.699219 14.0625 25.09375 14.558594 25.476562 C 14.703125 25.476562 14.71875 25.347656 14.753906 25.253906 C 14.816406 25.050781 14.863281 24.847656 14.894531 24.636719 L 15.21875 22.265625 Z M 15.039062 0.03125 " fill-opacity="1" fill-rule="nonzero"/></g><g clip-path="url(#9e32f2fdae)"><path fill="#c2bfbf" d="M 15.824219 26.167969 C 15.855469 25.808594 16.035156 25.503906 16.226562 25.207031 C 16.03125 25.125 15.890625 24.96875 15.777344 24.792969 C 15.679688 24.636719 15.601562 24.445312 15.539062 24.273438 C 15.3125 23.609375 15.265625 22.910156 15.203125 22.234375 L 15.203125 21.824219 C 15.121094 21.886719 15.105469 22.421875 15.105469 22.503906 C 15.058594 23.222656 14.960938 23.933594 14.816406 24.636719 C 14.769531 24.921875 14.738281 25.207031 14.558594 25.460938 C 14.558594 25.492188 14.558594 25.523438 14.574219 25.570312 C 14.863281 26.410156 14.941406 27.261719 14.992188 28.132812 L 14.992188 28.449219 C 14.992188 28.828125 14.976562 28.75 15.292969 28.875 C 15.421875 28.921875 15.566406 28.941406 15.695312 29.035156 C 15.792969 29.035156 15.808594 28.957031 15.808594 28.890625 L 15.757812 28.371094 L 15.757812 26.914062 C 15.742188 26.660156 15.792969 26.410156 15.824219 26.171875 Z M 15.824219 26.167969 " fill-opacity="1" fill-rule="nonzero"/></g></svg>