<svg xmlns="http://www.w3.org/2000/svg" xmlns:xlink="http://www.w3.org/1999/xlink" width="200" zoomAndPan="magnify" viewBox="0 0 150 149.999998" height="200" preserveAspectRatio="xMidYMid meet" version="1.0"><defs><clipPath id="41e4aa1ea5"><path d="M 1.191406 0 L 149.691406 0 L 149.691406 142.5 L 1.191406 142.5 Z M 1.191406 0 " clip-rule="nonzero"/></clipPath><clipPath id="f1d09dab9f"><path d="M 47.109375 130.085938 L 103.671875 130.085938 C 103.683594 130.003906 103.691406 129.917969 103.703125 129.835938 L 103.707031 129.832031 C 103.71875 129.75 103.730469 129.671875 103.742188 129.59375 L 103.746094 129.574219 C 103.757812 129.496094 103.773438 129.417969 103.789062 129.339844 L 103.789062 129.324219 C 103.804688 129.246094 103.820312 129.167969 103.839844 129.089844 L 103.839844 129.082031 C 103.855469 129.003906 103.875 128.925781 103.894531 128.84375 L 103.898438 128.832031 C 104.03125 128.273438 104.210938 127.726562 104.429688 127.203125 L 104.4375 127.1875 C 104.460938 127.125 104.488281 127.066406 104.511719 127.007812 L 104.539062 126.949219 C 104.5625 126.894531 104.585938 126.839844 104.613281 126.789062 L 104.644531 126.714844 C 104.671875 126.664062 104.695312 126.613281 104.71875 126.5625 L 104.757812 126.488281 C 104.78125 126.4375 104.808594 126.390625 104.832031 126.34375 L 104.875 126.261719 C 104.902344 126.214844 104.925781 126.167969 104.949219 126.125 L 105 126.035156 C 105.023438 125.992188 105.050781 125.949219 105.074219 125.90625 L 105.128906 125.816406 C 105.152344 125.773438 105.179688 125.730469 105.203125 125.6875 L 105.257812 125.601562 C 105.285156 125.558594 105.3125 125.515625 105.339844 125.476562 C 105.355469 125.445312 105.375 125.417969 105.394531 125.390625 C 105.421875 125.347656 105.449219 125.304688 105.480469 125.265625 C 105.496094 125.238281 105.515625 125.210938 105.53125 125.1875 C 105.5625 125.144531 105.59375 125.101562 105.621094 125.058594 L 105.625 125.054688 C 105.671875 124.988281 105.71875 124.921875 105.769531 124.859375 L 105.792969 124.824219 C 105.835938 124.769531 105.878906 124.710938 105.921875 124.65625 L 105.964844 124.601562 C 106.003906 124.554688 106.042969 124.507812 106.082031 124.460938 C 106.101562 124.433594 106.121094 124.410156 106.144531 124.386719 C 106.179688 124.34375 106.210938 124.304688 106.246094 124.265625 C 106.265625 124.242188 106.285156 124.21875 106.308594 124.195312 C 106.34375 124.152344 106.378906 124.113281 106.417969 124.070312 L 106.476562 124.007812 C 106.511719 123.964844 106.550781 123.925781 106.589844 123.882812 L 106.652344 123.816406 C 106.691406 123.78125 106.726562 123.742188 106.765625 123.707031 L 106.835938 123.632812 C 106.875 123.597656 106.910156 123.558594 106.949219 123.523438 L 107.015625 123.457031 C 107.054688 123.421875 107.097656 123.382812 107.136719 123.347656 L 107.203125 123.285156 C 107.246094 123.25 107.289062 123.210938 107.332031 123.171875 L 107.394531 123.117188 C 107.441406 123.078125 107.492188 123.035156 107.539062 122.996094 L 107.585938 122.957031 C 107.640625 122.910156 107.695312 122.867188 107.75 122.824219 L 107.785156 122.796875 C 107.988281 122.636719 108.199219 122.484375 108.414062 122.335938 L 108.433594 122.324219 C 108.496094 122.28125 108.5625 122.238281 108.625 122.199219 L 108.667969 122.167969 C 108.726562 122.132812 108.789062 122.09375 108.847656 122.058594 L 108.894531 122.03125 C 108.949219 121.996094 109.003906 121.964844 109.0625 121.933594 L 109.132812 121.890625 C 109.183594 121.863281 109.234375 121.832031 109.285156 121.804688 L 109.359375 121.765625 C 109.410156 121.738281 109.460938 121.710938 109.515625 121.683594 L 109.589844 121.644531 C 109.640625 121.621094 109.691406 121.59375 109.742188 121.570312 L 109.820312 121.53125 C 109.875 121.503906 109.925781 121.480469 109.980469 121.457031 L 110.054688 121.421875 C 110.109375 121.398438 110.167969 121.375 110.222656 121.347656 L 110.292969 121.320312 C 110.351562 121.292969 110.410156 121.269531 110.472656 121.246094 L 110.53125 121.222656 C 110.597656 121.195312 110.664062 121.171875 110.730469 121.148438 L 110.773438 121.128906 C 110.855469 121.101562 110.933594 121.074219 111.015625 121.046875 L 111.019531 121.042969 C 111.1875 120.988281 111.355469 120.933594 111.523438 120.886719 L 111.585938 120.871094 C 111.648438 120.851562 111.710938 120.835938 111.773438 120.816406 C 111.804688 120.808594 111.832031 120.804688 111.859375 120.796875 C 111.914062 120.78125 111.972656 120.769531 112.027344 120.753906 L 112.125 120.734375 C 112.179688 120.722656 112.230469 120.710938 112.28125 120.699219 L 112.386719 120.679688 C 112.4375 120.667969 112.488281 120.65625 112.542969 120.648438 L 112.652344 120.628906 C 112.699219 120.621094 112.75 120.613281 112.796875 120.605469 L 112.914062 120.585938 C 112.964844 120.578125 113.015625 120.574219 113.066406 120.566406 L 113.175781 120.550781 C 113.230469 120.542969 113.28125 120.539062 113.335938 120.53125 L 113.441406 120.523438 C 113.496094 120.515625 113.546875 120.511719 113.601562 120.507812 C 113.636719 120.503906 113.675781 120.5 113.710938 120.5 C 113.765625 120.496094 113.820312 120.492188 113.878906 120.488281 C 113.910156 120.484375 113.945312 120.484375 113.976562 120.480469 C 114.039062 120.480469 114.101562 120.476562 114.160156 120.476562 L 114.25 120.472656 C 114.339844 120.46875 114.429688 120.46875 114.523438 120.46875 C 115.234375 120.46875 115.941406 120.535156 116.636719 120.671875 L 134.113281 66.902344 C 130.613281 65.292969 128.230469 61.957031 127.835938 58.113281 L 127.835938 58.09375 C 127.828125 58.011719 127.820312 57.929688 127.8125 57.847656 L 127.8125 57.820312 C 127.804688 57.734375 127.800781 57.648438 127.792969 57.5625 L 127.792969 57.527344 C 127.789062 57.453125 127.785156 57.382812 127.785156 57.308594 L 127.78125 57.242188 C 127.78125 57.160156 127.78125 57.074219 127.78125 56.988281 C 127.78125 56.898438 127.78125 56.804688 127.785156 56.714844 L 127.785156 56.703125 C 127.785156 56.609375 127.789062 56.519531 127.792969 56.429688 L 127.792969 56.425781 C 127.878906 54.742188 128.34375 53.125 129.160156 51.667969 L 83.402344 18.4375 C 83.007812 18.859375 82.585938 19.246094 82.136719 19.597656 L 82.125 19.605469 C 82.074219 19.644531 82.027344 19.683594 81.976562 19.71875 C 80.332031 20.964844 78.328125 21.757812 76.144531 21.90625 L 76.019531 21.914062 L 75.90625 21.917969 C 75.832031 21.921875 75.761719 21.925781 75.6875 21.929688 L 75.65625 21.929688 C 75.570312 21.929688 75.480469 21.933594 75.394531 21.933594 C 75.128906 21.933594 74.863281 21.921875 74.601562 21.902344 C 74.558594 21.898438 74.515625 21.894531 74.472656 21.894531 L 74.375 21.882812 C 72.375 21.699219 70.527344 20.96875 68.984375 19.851562 L 68.914062 19.800781 L 68.847656 19.75 C 68.324219 19.359375 67.832031 18.921875 67.382812 18.4375 L 21.621094 51.667969 C 22.53125 53.289062 23.007812 55.105469 23.007812 56.988281 C 23.007812 57.074219 23.003906 57.160156 23.003906 57.242188 L 23 57.308594 C 23 57.378906 22.996094 57.445312 22.992188 57.515625 L 22.992188 57.566406 C 22.988281 57.652344 22.980469 57.742188 22.972656 57.828125 L 22.972656 57.835938 C 22.96875 57.921875 22.960938 58.003906 22.949219 58.089844 L 22.949219 58.117188 C 22.554688 61.957031 20.167969 65.292969 16.671875 66.902344 L 34.148438 120.671875 C 34.84375 120.535156 35.546875 120.46875 36.265625 120.46875 C 36.355469 120.46875 36.445312 120.46875 36.535156 120.472656 L 36.625 120.476562 C 36.683594 120.476562 36.746094 120.480469 36.808594 120.480469 C 36.839844 120.484375 36.875 120.484375 36.910156 120.488281 C 36.964844 120.492188 37.019531 120.496094 37.074219 120.5 C 37.113281 120.5 37.152344 120.503906 37.191406 120.507812 C 37.242188 120.511719 37.289062 120.515625 37.339844 120.519531 C 37.378906 120.523438 37.421875 120.53125 37.464844 120.535156 C 37.511719 120.539062 37.558594 120.542969 37.601562 120.550781 L 37.722656 120.566406 C 37.773438 120.574219 37.824219 120.578125 37.871094 120.585938 L 37.988281 120.605469 C 38.035156 120.613281 38.082031 120.621094 38.132812 120.628906 L 38.246094 120.648438 C 38.296875 120.65625 38.347656 120.667969 38.394531 120.675781 L 38.503906 120.699219 C 38.554688 120.710938 38.605469 120.722656 38.65625 120.734375 C 38.691406 120.742188 38.726562 120.746094 38.761719 120.757812 C 38.8125 120.769531 38.867188 120.78125 38.921875 120.796875 C 38.949219 120.804688 38.980469 120.808594 39.011719 120.816406 C 39.074219 120.835938 39.136719 120.851562 39.199219 120.867188 L 39.261719 120.886719 C 39.335938 120.90625 39.414062 120.929688 39.488281 120.953125 L 39.511719 120.960938 C 39.59375 120.988281 39.679688 121.015625 39.761719 121.042969 L 39.789062 121.050781 C 39.863281 121.078125 39.933594 121.101562 40.007812 121.128906 L 40.066406 121.152344 C 40.128906 121.175781 40.191406 121.199219 40.253906 121.222656 L 40.316406 121.246094 C 40.375 121.269531 40.433594 121.296875 40.492188 121.320312 L 40.566406 121.351562 C 40.621094 121.375 40.671875 121.398438 40.726562 121.421875 L 40.808594 121.457031 C 40.859375 121.484375 40.910156 121.507812 40.964844 121.53125 L 41.039062 121.570312 C 41.09375 121.59375 41.144531 121.621094 41.195312 121.644531 L 41.269531 121.683594 C 41.320312 121.710938 41.371094 121.738281 41.421875 121.765625 L 41.5 121.808594 C 41.550781 121.832031 41.597656 121.863281 41.648438 121.890625 L 41.726562 121.933594 C 41.777344 121.964844 41.828125 121.996094 41.882812 122.027344 L 41.941406 122.0625 C 41.996094 122.097656 42.054688 122.132812 42.109375 122.167969 L 42.15625 122.199219 C 42.226562 122.242188 42.296875 122.289062 42.367188 122.335938 C 42.585938 122.484375 42.796875 122.636719 43.003906 122.800781 L 43.007812 122.800781 C 43.074219 122.855469 43.136719 122.90625 43.203125 122.957031 L 43.238281 122.988281 C 43.289062 123.03125 43.339844 123.074219 43.394531 123.121094 L 43.445312 123.164062 C 43.492188 123.207031 43.542969 123.25 43.589844 123.292969 L 43.632812 123.332031 C 43.679688 123.378906 43.726562 123.421875 43.777344 123.464844 L 43.824219 123.511719 C 43.871094 123.554688 43.914062 123.601562 43.960938 123.644531 L 44.007812 123.695312 C 44.054688 123.738281 44.097656 123.785156 44.140625 123.828125 L 44.1875 123.878906 C 44.230469 123.925781 44.273438 123.96875 44.316406 124.015625 L 44.363281 124.066406 C 44.40625 124.117188 44.453125 124.167969 44.496094 124.21875 L 44.53125 124.253906 C 44.582031 124.316406 44.636719 124.378906 44.6875 124.441406 L 44.691406 124.445312 C 44.914062 124.714844 45.121094 124.992188 45.316406 125.28125 L 45.335938 125.308594 C 45.375 125.371094 45.414062 125.429688 45.457031 125.492188 L 45.492188 125.550781 C 45.527344 125.601562 45.558594 125.65625 45.589844 125.710938 L 45.628906 125.773438 C 45.660156 125.824219 45.691406 125.875 45.722656 125.925781 L 45.765625 126.003906 C 45.792969 126.050781 45.820312 126.097656 45.84375 126.148438 L 45.894531 126.234375 C 45.917969 126.277344 45.941406 126.324219 45.960938 126.367188 L 46.015625 126.46875 C 46.035156 126.511719 46.058594 126.550781 46.078125 126.59375 L 46.128906 126.695312 C 46.148438 126.742188 46.167969 126.785156 46.191406 126.832031 L 46.234375 126.929688 C 46.253906 126.972656 46.273438 127.015625 46.292969 127.058594 C 46.308594 127.09375 46.324219 127.132812 46.339844 127.167969 C 46.355469 127.207031 46.371094 127.246094 46.386719 127.28125 C 46.402344 127.324219 46.421875 127.367188 46.4375 127.410156 C 46.449219 127.4375 46.457031 127.460938 46.46875 127.488281 C 46.574219 127.765625 46.671875 128.050781 46.753906 128.339844 L 46.761719 128.359375 C 46.78125 128.433594 46.800781 128.503906 46.820312 128.574219 L 46.828125 128.605469 C 46.847656 128.675781 46.863281 128.746094 46.882812 128.816406 L 46.890625 128.851562 C 46.90625 128.921875 46.921875 128.992188 46.9375 129.066406 L 46.945312 129.101562 C 46.960938 129.171875 46.976562 129.242188 46.992188 129.316406 L 46.996094 129.347656 C 47.011719 129.421875 47.023438 129.5 47.035156 129.574219 L 47.039062 129.59375 C 47.054688 129.671875 47.066406 129.75 47.078125 129.832031 L 47.078125 129.835938 C 47.089844 129.917969 47.101562 130.003906 47.109375 130.085938 Z M 74.304688 107.1875 L 76.480469 107.1875 L 76.480469 96.148438 C 76.480469 95.722656 76.691406 95.320312 77.042969 95.078125 C 77.84375 94.53125 78.324219 93.625 78.324219 92.660156 C 78.324219 91.042969 77.007812 89.730469 75.394531 89.730469 C 73.777344 89.730469 72.460938 91.042969 72.460938 92.660156 C 72.464844 93.625 72.9375 94.53125 73.738281 95.078125 C 74.09375 95.320312 74.304688 95.722656 74.304688 96.152344 Z M 77.78125 109.792969 L 73.003906 109.792969 C 72.285156 109.792969 71.699219 109.210938 71.699219 108.492188 L 71.699219 96.78125 C 70.535156 95.738281 69.859375 94.246094 69.859375 92.660156 C 69.859375 89.609375 72.339844 87.125 75.394531 87.125 C 78.441406 87.125 80.925781 89.609375 80.925781 92.660156 C 80.925781 94.246094 80.25 95.738281 79.082031 96.78125 L 79.082031 108.492188 C 79.082031 109.210938 78.5 109.792969 77.78125 109.792969 Z M 85.652344 68.53125 L 85.652344 54.449219 C 85.652344 51.289062 84.558594 48.652344 82.480469 46.824219 C 80.625 45.183594 78.101562 44.28125 75.394531 44.28125 C 70.449219 44.28125 65.128906 47.464844 65.128906 54.449219 L 65.128906 68.53125 Z M 63.835938 71.132812 L 59.101562 71.132812 C 58.796875 71.132812 58.5 71.164062 58.210938 71.21875 C 58.101562 71.261719 57.984375 71.289062 57.867188 71.296875 C 55.863281 71.84375 54.386719 73.675781 54.386719 75.851562 L 54.386719 108.757812 C 54.386719 111.359375 56.5 113.472656 59.101562 113.472656 L 91.683594 113.472656 C 94.285156 113.472656 96.402344 111.359375 96.402344 108.757812 L 96.402344 75.851562 C 96.402344 73.675781 94.921875 71.839844 92.914062 71.296875 C 92.796875 71.285156 92.683594 71.257812 92.578125 71.21875 C 92.289062 71.164062 91.988281 71.132812 91.683594 71.132812 Z M 62.523438 68.53125 L 62.523438 54.449219 C 62.523438 46.0625 68.996094 41.675781 75.394531 41.675781 C 81.789062 41.675781 88.257812 46.0625 88.257812 54.449219 L 88.257812 68.53125 L 91.738281 68.53125 L 91.738281 53.625 C 91.738281 45.308594 84.96875 38.542969 76.652344 38.542969 L 74.132812 38.542969 C 65.816406 38.542969 59.046875 45.308594 59.046875 53.625 L 59.050781 68.53125 Z M 56.445312 69.027344 L 56.445312 53.625 C 56.445312 43.875 64.378906 35.941406 74.132812 35.941406 L 76.652344 35.941406 C 86.40625 35.941406 94.34375 43.875 94.34375 53.625 L 94.34375 69.03125 C 97.066406 70.09375 99.003906 72.75 99.003906 75.851562 L 99.007812 108.757812 C 99.007812 112.792969 95.71875 116.078125 91.683594 116.078125 L 59.101562 116.078125 C 55.066406 116.078125 51.78125 112.792969 51.78125 108.757812 L 51.78125 75.851562 C 51.78125 72.75 53.71875 70.09375 56.445312 69.027344 Z M 12.078125 48.671875 C 7.488281 48.671875 3.757812 52.402344 3.757812 56.988281 C 3.757812 61.578125 7.488281 65.308594 12.078125 65.308594 C 16.453125 65.308594 20.046875 61.921875 20.375 57.632812 L 20.378906 57.617188 C 20.382812 57.558594 20.386719 57.5 20.390625 57.441406 L 20.390625 57.390625 C 20.394531 57.339844 20.394531 57.289062 20.398438 57.238281 L 20.398438 57.1875 C 20.402344 57.121094 20.402344 57.054688 20.402344 56.988281 C 20.402344 56.921875 20.398438 56.851562 20.398438 56.78125 L 20.398438 56.769531 C 20.28125 52.285156 16.59375 48.675781 12.078125 48.671875 Z M 12.078125 67.914062 C 6.054688 67.914062 1.152344 63.015625 1.152344 56.988281 C 1.152344 50.96875 6.054688 46.070312 12.078125 46.070312 C 15.238281 46.070312 18.089844 47.417969 20.085938 49.566406 L 65.851562 16.328125 C 64.96875 14.753906 64.464844 12.941406 64.464844 11.007812 C 64.464844 4.988281 69.367188 0.0898438 75.394531 0.0898438 C 81.417969 0.0898438 86.316406 4.988281 86.316406 11.007812 C 86.316406 12.941406 85.8125 14.753906 84.929688 16.328125 L 130.699219 49.570312 C 132.695312 47.417969 135.546875 46.070312 138.703125 46.070312 C 144.730469 46.070312 149.632812 50.96875 149.632812 56.988281 C 149.632812 63.015625 144.730469 67.914062 138.703125 67.914062 C 137.980469 67.914062 137.273438 67.839844 136.589844 67.707031 L 119.109375 121.480469 C 122.847656 123.214844 125.445312 127.003906 125.445312 131.386719 C 125.445312 137.410156 120.546875 142.3125 114.523438 142.3125 C 108.9375 142.3125 104.316406 138.101562 103.671875 132.691406 L 47.109375 132.691406 C 46.464844 138.101562 41.847656 142.3125 36.265625 142.3125 C 30.238281 142.3125 25.335938 137.410156 25.335938 131.386719 C 25.335938 127.003906 27.933594 123.21875 31.671875 121.480469 L 14.195312 67.707031 C 13.507812 67.84375 12.800781 67.914062 12.078125 67.914062 Z M 36.253906 123.070312 C 36.191406 123.070312 36.125 123.074219 36.058594 123.074219 L 36.046875 123.074219 C 31.558594 123.191406 27.941406 126.875 27.941406 131.386719 C 27.941406 135.976562 31.675781 139.707031 36.265625 139.707031 C 40.847656 139.707031 44.582031 135.976562 44.582031 131.386719 C 44.582031 131.316406 44.582031 131.246094 44.582031 131.175781 C 44.578125 131.101562 44.578125 131.03125 44.574219 130.960938 C 44.570312 130.890625 44.566406 130.820312 44.558594 130.75 C 44.554688 130.679688 44.546875 130.609375 44.539062 130.539062 C 44.535156 130.46875 44.527344 130.398438 44.515625 130.332031 C 44.507812 130.261719 44.5 130.191406 44.488281 130.125 C 44.476562 130.054688 44.464844 129.984375 44.453125 129.917969 C 44.441406 129.847656 44.429688 129.78125 44.414062 129.714844 C 44.402344 129.644531 44.386719 129.578125 44.371094 129.511719 C 44.355469 129.445312 44.339844 129.378906 44.320312 129.3125 C 44.304688 129.246094 44.285156 129.179688 44.269531 129.113281 C 44.25 129.046875 44.230469 128.980469 44.210938 128.917969 C 44.1875 128.851562 44.167969 128.789062 44.144531 128.722656 C 44.125 128.660156 44.101562 128.59375 44.078125 128.53125 C 44.054688 128.46875 44.03125 128.402344 44.003906 128.339844 C 43.980469 128.277344 43.957031 128.214844 43.929688 128.152344 C 43.902344 128.089844 43.875 128.03125 43.847656 127.96875 C 43.820312 127.90625 43.792969 127.847656 43.761719 127.785156 C 43.734375 127.726562 43.703125 127.664062 43.671875 127.605469 C 43.640625 127.546875 43.609375 127.484375 43.578125 127.425781 C 43.546875 127.367188 43.511719 127.308594 43.480469 127.25 C 43.445312 127.191406 43.410156 127.136719 43.378906 127.078125 C 43.34375 127.019531 43.308594 126.964844 43.269531 126.910156 C 43.234375 126.851562 43.199219 126.796875 43.160156 126.742188 C 43.125 126.6875 43.085938 126.628906 43.046875 126.578125 C 43.007812 126.523438 42.96875 126.46875 42.929688 126.414062 C 42.886719 126.363281 42.847656 126.308594 42.804688 126.257812 C 42.683594 126.097656 42.554688 125.945312 42.417969 125.800781 C 42.375 125.75 42.328125 125.699219 42.28125 125.652344 C 42.238281 125.605469 42.191406 125.558594 42.144531 125.511719 C 42.097656 125.464844 42.050781 125.417969 42 125.371094 C 41.855469 125.234375 41.707031 125.101562 41.550781 124.972656 C 40.320312 123.957031 38.789062 123.285156 37.113281 123.113281 C 37.042969 123.109375 36.972656 123.101562 36.902344 123.097656 C 36.691406 123.082031 36.480469 123.070312 36.265625 123.070312 Z M 106.199219 131.386719 C 106.199219 135.976562 109.933594 139.707031 114.523438 139.707031 C 119.113281 139.707031 122.839844 135.976562 122.839844 131.386719 C 122.839844 126.945312 119.339844 123.304688 114.949219 123.082031 C 114.882812 123.078125 114.816406 123.078125 114.746094 123.074219 L 114.726562 123.074219 C 114.660156 123.074219 114.597656 123.070312 114.53125 123.070312 L 114.523438 123.070312 C 114.449219 123.070312 114.378906 123.074219 114.308594 123.074219 C 114.238281 123.078125 114.164062 123.078125 114.09375 123.082031 C 114.023438 123.085938 113.953125 123.089844 113.882812 123.097656 C 113.8125 123.101562 113.742188 123.109375 113.671875 123.113281 C 113.601562 123.121094 113.535156 123.128906 113.464844 123.140625 C 113.394531 123.148438 113.324219 123.15625 113.257812 123.167969 C 113.1875 123.179688 113.121094 123.191406 113.050781 123.203125 C 112.984375 123.214844 112.914062 123.226562 112.847656 123.242188 C 112.78125 123.253906 112.710938 123.269531 112.644531 123.285156 C 112.578125 123.300781 112.511719 123.316406 112.445312 123.335938 C 112.378906 123.351562 112.3125 123.371094 112.246094 123.386719 C 112.179688 123.40625 112.117188 123.425781 112.050781 123.445312 C 111.984375 123.464844 111.921875 123.488281 111.855469 123.507812 C 111.792969 123.53125 111.726562 123.554688 111.664062 123.578125 C 111.601562 123.601562 111.535156 123.625 111.472656 123.648438 C 111.410156 123.675781 111.347656 123.699219 111.285156 123.726562 C 111.222656 123.753906 111.164062 123.78125 111.101562 123.808594 C 111.039062 123.835938 110.976562 123.863281 110.917969 123.894531 C 110.855469 123.921875 110.796875 123.953125 110.738281 123.984375 C 110.675781 124.011719 110.617188 124.042969 110.558594 124.078125 C 110.5 124.109375 110.441406 124.140625 110.382812 124.175781 C 110.324219 124.207031 110.265625 124.242188 110.210938 124.277344 C 110.152344 124.3125 110.097656 124.347656 110.039062 124.382812 C 109.984375 124.417969 109.929688 124.457031 109.871094 124.492188 C 109.816406 124.53125 109.761719 124.570312 109.707031 124.609375 C 109.652344 124.648438 109.601562 124.6875 109.546875 124.726562 C 109.492188 124.765625 109.441406 124.804688 109.386719 124.847656 C 109.335938 124.890625 109.28125 124.929688 109.230469 124.972656 C 109.179688 125.015625 109.128906 125.058594 109.078125 125.101562 C 109.027344 125.144531 108.980469 125.191406 108.929688 125.234375 C 108.878906 125.28125 108.832031 125.324219 108.78125 125.371094 C 108.734375 125.417969 108.6875 125.464844 108.640625 125.511719 C 108.59375 125.558594 108.546875 125.605469 108.5 125.652344 C 108.453125 125.699219 108.410156 125.75 108.363281 125.800781 C 108.320312 125.847656 108.273438 125.898438 108.230469 125.949219 C 108.1875 126 108.144531 126.050781 108.101562 126.101562 C 108.058594 126.152344 108.019531 126.203125 107.976562 126.257812 C 107.9375 126.308594 107.894531 126.363281 107.855469 126.414062 C 107.816406 126.46875 107.777344 126.523438 107.738281 126.578125 C 107.699219 126.632812 107.660156 126.6875 107.621094 126.742188 C 107.585938 126.796875 107.546875 126.851562 107.511719 126.910156 C 107.476562 126.964844 107.441406 127.023438 107.40625 127.078125 C 107.371094 127.136719 107.335938 127.195312 107.304688 127.25 C 107.269531 127.308594 107.238281 127.367188 107.207031 127.425781 C 107.171875 127.484375 107.140625 127.546875 107.113281 127.605469 C 107.082031 127.664062 107.050781 127.726562 107.019531 127.785156 C 106.992188 127.847656 106.964844 127.90625 106.9375 127.96875 C 106.90625 128.03125 106.878906 128.089844 106.855469 128.152344 C 106.828125 128.214844 106.800781 128.277344 106.777344 128.339844 C 106.753906 128.40625 106.726562 128.46875 106.707031 128.53125 C 106.683594 128.59375 106.660156 128.660156 106.636719 128.722656 C 106.617188 128.789062 106.59375 128.851562 106.574219 128.917969 C 106.554688 128.984375 106.535156 129.046875 106.515625 129.113281 C 106.496094 129.179688 106.480469 129.246094 106.460938 129.3125 C 106.445312 129.378906 106.429688 129.445312 106.414062 129.511719 C 106.398438 129.578125 106.382812 129.644531 106.367188 129.714844 C 106.355469 129.78125 106.339844 129.851562 106.328125 129.917969 C 106.316406 129.984375 106.304688 130.054688 106.296875 130.125 C 106.285156 130.191406 106.273438 130.261719 106.265625 130.332031 C 106.257812 130.398438 106.25 130.46875 106.242188 130.539062 C 106.234375 130.609375 106.230469 130.679688 106.222656 130.75 C 106.21875 130.820312 106.214844 130.890625 106.210938 130.960938 C 106.207031 131.03125 106.203125 131.101562 106.203125 131.175781 C 106.199219 131.246094 106.199219 131.316406 106.199219 131.386719 Z M 138.703125 48.671875 C 134.1875 48.671875 130.503906 52.285156 130.386719 56.769531 L 130.386719 56.78125 C 130.386719 56.851562 130.382812 56.921875 130.382812 56.988281 C 130.382812 57.054688 130.386719 57.121094 130.386719 57.1875 L 130.386719 57.238281 C 130.390625 57.289062 130.390625 57.339844 130.394531 57.390625 L 130.398438 57.441406 C 130.398438 57.496094 130.402344 57.550781 130.40625 57.605469 L 130.410156 57.636719 C 130.664062 60.933594 132.851562 63.699219 135.835938 64.800781 L 135.902344 64.824219 L 135.992188 64.855469 C 136.03125 64.871094 136.074219 64.882812 136.117188 64.898438 C 136.933594 65.164062 137.800781 65.308594 138.703125 65.308594 C 143.292969 65.308594 147.027344 61.578125 147.027344 56.988281 C 147.027344 52.402344 143.292969 48.675781 138.703125 48.671875 Z M 75.394531 2.691406 C 70.804688 2.691406 67.070312 6.425781 67.070312 11.007812 C 67.070312 13.660156 68.316406 16.023438 70.253906 17.550781 L 70.257812 17.554688 C 70.304688 17.585938 70.347656 17.621094 70.394531 17.65625 L 70.46875 17.710938 L 70.492188 17.726562 C 71.753906 18.644531 73.261719 19.203125 74.835938 19.308594 L 74.917969 19.316406 L 75 19.320312 C 75.054688 19.320312 75.105469 19.324219 75.160156 19.324219 L 75.207031 19.324219 C 75.269531 19.328125 75.332031 19.328125 75.394531 19.328125 C 75.453125 19.328125 75.515625 19.328125 75.578125 19.324219 L 75.625 19.324219 C 75.679688 19.324219 75.734375 19.320312 75.785156 19.320312 L 75.863281 19.316406 L 75.957031 19.308594 C 76.015625 19.304688 76.070312 19.300781 76.128906 19.296875 L 76.136719 19.292969 C 77.511719 19.171875 78.824219 18.703125 79.960938 17.957031 L 80.019531 17.917969 L 80.0625 17.890625 C 82.265625 16.390625 83.710938 13.867188 83.710938 11.007812 C 83.714844 6.425781 79.976562 2.691406 75.394531 2.691406 Z M 75.394531 2.691406 " clip-rule="evenodd"/></clipPath><linearGradient x1="-4.438243" gradientTransform="matrix(0.969954, 0, 0, 0.969552, -8.700832, -12.85867)" y1="53.306584" x2="177.871943" gradientUnits="userSpaceOnUse" y2="120.103133" id="8d4174d3a5"><stop stop-opacity="1" stop-color="rgb(95.698547%, 31.399536%, 36.499023%)" offset="0"/><stop stop-opacity="1" stop-color="rgb(95.666504%, 31.419373%, 36.584473%)" offset="0.03125"/><stop stop-opacity="1" stop-color="rgb(95.458984%, 31.55365%, 37.136841%)" offset="0.0351563"/><stop stop-opacity="1" stop-color="rgb(95.283508%, 31.668091%, 37.60376%)" offset="0.0390625"/><stop stop-opacity="1" stop-color="rgb(95.108032%, 31.781006%, 38.070679%)" offset="0.0429688"/><stop stop-opacity="1" stop-color="rgb(94.932556%, 31.893921%, 38.537598%)" offset="0.046875"/><stop stop-opacity="1" stop-color="rgb(94.75708%, 32.006836%, 39.004517%)" offset="0.0507813"/><stop stop-opacity="1" stop-color="rgb(94.581604%, 32.121277%, 39.471436%)" offset="0.0546875"/><stop stop-opacity="1" stop-color="rgb(94.406128%, 32.234192%, 39.938354%)" offset="0.0585938"/><stop stop-opacity="1" stop-color="rgb(94.230652%, 32.348633%, 40.405273%)" offset="0.0625"/><stop stop-opacity="1" stop-color="rgb(94.055176%, 32.461548%, 40.872192%)" offset="0.0664062"/><stop stop-opacity="1" stop-color="rgb(93.8797%, 32.574463%, 41.339111%)" offset="0.0703125"/><stop stop-opacity="1" stop-color="rgb(93.704224%, 32.687378%, 41.80603%)" offset="0.0742188"/><stop stop-opacity="1" stop-color="rgb(93.528748%, 32.801819%, 42.272949%)" offset="0.078125"/><stop stop-opacity="1" stop-color="rgb(93.353271%, 32.914734%, 42.738342%)" offset="0.0820313"/><stop stop-opacity="1" stop-color="rgb(93.177795%, 33.027649%, 43.205261%)" offset="0.0859375"/><stop stop-opacity="1" stop-color="rgb(93.002319%, 33.140564%, 43.67218%)" offset="0.0898438"/><stop stop-opacity="1" stop-color="rgb(92.826843%, 33.255005%, 44.139099%)" offset="0.09375"/><stop stop-opacity="1" stop-color="rgb(92.651367%, 33.36792%, 44.606018%)" offset="0.0976563"/><stop stop-opacity="1" stop-color="rgb(92.475891%, 33.482361%, 45.072937%)" offset="0.101563"/><stop stop-opacity="1" stop-color="rgb(92.300415%, 33.595276%, 45.539856%)" offset="0.105469"/><stop stop-opacity="1" stop-color="rgb(92.124939%, 33.708191%, 46.006775%)" offset="0.109375"/><stop stop-opacity="1" stop-color="rgb(91.949463%, 33.821106%, 46.473694%)" offset="0.113281"/><stop stop-opacity="1" stop-color="rgb(91.773987%, 33.935547%, 46.940613%)" offset="0.117188"/><stop stop-opacity="1" stop-color="rgb(91.598511%, 34.048462%, 47.407532%)" offset="0.121094"/><stop stop-opacity="1" stop-color="rgb(91.423035%, 34.162903%, 47.874451%)" offset="0.125"/><stop stop-opacity="1" stop-color="rgb(91.247559%, 34.275818%, 48.339844%)" offset="0.128906"/><stop stop-opacity="1" stop-color="rgb(91.072083%, 34.388733%, 48.806763%)" offset="0.132813"/><stop stop-opacity="1" stop-color="rgb(90.896606%, 34.501648%, 49.273682%)" offset="0.136719"/><stop stop-opacity="1" stop-color="rgb(90.72113%, 34.616089%, 49.740601%)" offset="0.140625"/><stop stop-opacity="1" stop-color="rgb(90.545654%, 34.729004%, 50.20752%)" offset="0.144531"/><stop stop-opacity="1" stop-color="rgb(90.370178%, 34.841919%, 50.674438%)" offset="0.148438"/><stop stop-opacity="1" stop-color="rgb(90.194702%, 34.954834%, 51.141357%)" offset="0.152344"/><stop stop-opacity="1" stop-color="rgb(90.019226%, 35.069275%, 51.608276%)" offset="0.15625"/><stop stop-opacity="1" stop-color="rgb(89.84375%, 35.18219%, 52.075195%)" offset="0.160156"/><stop stop-opacity="1" stop-color="rgb(89.668274%, 35.296631%, 52.542114%)" offset="0.164063"/><stop stop-opacity="1" stop-color="rgb(89.492798%, 35.409546%, 53.009033%)" offset="0.167969"/><stop stop-opacity="1" stop-color="rgb(89.318848%, 35.522461%, 53.475952%)" offset="0.171875"/><stop stop-opacity="1" stop-color="rgb(89.143372%, 35.635376%, 53.941345%)" offset="0.175781"/><stop stop-opacity="1" stop-color="rgb(88.967896%, 35.749817%, 54.408264%)" offset="0.179688"/><stop stop-opacity="1" stop-color="rgb(88.792419%, 35.862732%, 54.875183%)" offset="0.183594"/><stop stop-opacity="1" stop-color="rgb(88.616943%, 35.977173%, 55.342102%)" offset="0.1875"/><stop stop-opacity="1" stop-color="rgb(88.441467%, 36.090088%, 55.809021%)" offset="0.191406"/><stop stop-opacity="1" stop-color="rgb(88.265991%, 36.203003%, 56.27594%)" offset="0.195313"/><stop stop-opacity="1" stop-color="rgb(88.090515%, 36.315918%, 56.742859%)" offset="0.199219"/><stop stop-opacity="1" stop-color="rgb(87.915039%, 36.430359%, 57.209778%)" offset="0.203125"/><stop stop-opacity="1" stop-color="rgb(87.739563%, 36.543274%, 57.676697%)" offset="0.207031"/><stop stop-opacity="1" stop-color="rgb(87.564087%, 36.656189%, 58.143616%)" offset="0.210938"/><stop stop-opacity="1" stop-color="rgb(87.388611%, 36.769104%, 58.610535%)" offset="0.214844"/><stop stop-opacity="1" stop-color="rgb(87.213135%, 36.883545%, 59.077454%)" offset="0.21875"/><stop stop-opacity="1" stop-color="rgb(87.037659%, 36.99646%, 59.542847%)" offset="0.222656"/><stop stop-opacity="1" stop-color="rgb(86.862183%, 37.110901%, 60.009766%)" offset="0.226562"/><stop stop-opacity="1" stop-color="rgb(86.686707%, 37.223816%, 60.476685%)" offset="0.230469"/><stop stop-opacity="1" stop-color="rgb(86.51123%, 37.336731%, 60.943604%)" offset="0.234375"/><stop stop-opacity="1" stop-color="rgb(86.335754%, 37.449646%, 61.410522%)" offset="0.238281"/><stop stop-opacity="1" stop-color="rgb(86.160278%, 37.564087%, 61.877441%)" offset="0.242188"/><stop stop-opacity="1" stop-color="rgb(85.984802%, 37.677002%, 62.34436%)" offset="0.246094"/><stop stop-opacity="1" stop-color="rgb(85.809326%, 37.789917%, 62.811279%)" offset="0.25"/><stop stop-opacity="1" stop-color="rgb(85.63385%, 37.902832%, 63.278198%)" offset="0.253906"/><stop stop-opacity="1" stop-color="rgb(85.458374%, 38.017273%, 63.745117%)" offset="0.257813"/><stop stop-opacity="1" stop-color="rgb(85.282898%, 38.130188%, 64.212036%)" offset="0.261719"/><stop stop-opacity="1" stop-color="rgb(85.107422%, 38.244629%, 64.678955%)" offset="0.265625"/><stop stop-opacity="1" stop-color="rgb(84.931946%, 38.357544%, 65.144348%)" offset="0.269531"/><stop stop-opacity="1" stop-color="rgb(84.75647%, 38.470459%, 65.611267%)" offset="0.273438"/><stop stop-opacity="1" stop-color="rgb(84.580994%, 38.583374%, 66.078186%)" offset="0.277344"/><stop stop-opacity="1" stop-color="rgb(84.405518%, 38.697815%, 66.545105%)" offset="0.28125"/><stop stop-opacity="1" stop-color="rgb(84.230042%, 38.81073%, 67.012024%)" offset="0.285156"/><stop stop-opacity="1" stop-color="rgb(84.054565%, 38.925171%, 67.478943%)" offset="0.289063"/><stop stop-opacity="1" stop-color="rgb(83.879089%, 39.038086%, 67.945862%)" offset="0.292969"/><stop stop-opacity="1" stop-color="rgb(83.703613%, 39.151001%, 68.412781%)" offset="0.296875"/><stop stop-opacity="1" stop-color="rgb(83.528137%, 39.263916%, 68.8797%)" offset="0.300781"/><stop stop-opacity="1" stop-color="rgb(83.352661%, 39.378357%, 69.346619%)" offset="0.304688"/><stop stop-opacity="1" stop-color="rgb(83.177185%, 39.491272%, 69.813538%)" offset="0.308594"/><stop stop-opacity="1" stop-color="rgb(83.001709%, 39.604187%, 70.280457%)" offset="0.3125"/><stop stop-opacity="1" stop-color="rgb(82.826233%, 39.717102%, 70.74585%)" offset="0.316406"/><stop stop-opacity="1" stop-color="rgb(82.650757%, 39.831543%, 71.212769%)" offset="0.320312"/><stop stop-opacity="1" stop-color="rgb(82.475281%, 39.944458%, 71.679688%)" offset="0.324219"/><stop stop-opacity="1" stop-color="rgb(82.299805%, 40.058899%, 72.146606%)" offset="0.328125"/><stop stop-opacity="1" stop-color="rgb(82.124329%, 40.171814%, 72.613525%)" offset="0.332031"/><stop stop-opacity="1" stop-color="rgb(81.948853%, 40.284729%, 73.080444%)" offset="0.335938"/><stop stop-opacity="1" stop-color="rgb(81.773376%, 40.397644%, 73.547363%)" offset="0.339844"/><stop stop-opacity="1" stop-color="rgb(81.5979%, 40.512085%, 74.014282%)" offset="0.34375"/><stop stop-opacity="1" stop-color="rgb(81.422424%, 40.625%, 74.481201%)" offset="0.347656"/><stop stop-opacity="1" stop-color="rgb(81.246948%, 40.739441%, 74.94812%)" offset="0.351562"/><stop stop-opacity="1" stop-color="rgb(81.071472%, 40.852356%, 75.415039%)" offset="0.355469"/><stop stop-opacity="1" stop-color="rgb(80.895996%, 40.965271%, 75.881958%)" offset="0.359375"/><stop stop-opacity="1" stop-color="rgb(80.72052%, 41.078186%, 76.347351%)" offset="0.363281"/><stop stop-opacity="1" stop-color="rgb(80.545044%, 41.192627%, 76.81427%)" offset="0.367188"/><stop stop-opacity="1" stop-color="rgb(80.369568%, 41.305542%, 77.281189%)" offset="0.371094"/><stop stop-opacity="1" stop-color="rgb(80.194092%, 41.418457%, 77.748108%)" offset="0.375"/><stop stop-opacity="1" stop-color="rgb(80.018616%, 41.531372%, 78.215027%)" offset="0.378906"/><stop stop-opacity="1" stop-color="rgb(79.84314%, 41.645813%, 78.681946%)" offset="0.382813"/><stop stop-opacity="1" stop-color="rgb(79.667664%, 41.758728%, 79.148865%)" offset="0.386719"/><stop stop-opacity="1" stop-color="rgb(79.492188%, 41.873169%, 79.615784%)" offset="0.390625"/><stop stop-opacity="1" stop-color="rgb(79.316711%, 41.986084%, 80.082703%)" offset="0.394531"/><stop stop-opacity="1" stop-color="rgb(79.141235%, 42.098999%, 80.549622%)" offset="0.398438"/><stop stop-opacity="1" stop-color="rgb(78.965759%, 42.211914%, 81.016541%)" offset="0.402344"/><stop stop-opacity="1" stop-color="rgb(78.790283%, 42.326355%, 81.483459%)" offset="0.40625"/><stop stop-opacity="1" stop-color="rgb(78.614807%, 42.43927%, 81.948853%)" offset="0.410156"/><stop stop-opacity="1" stop-color="rgb(78.439331%, 42.552185%, 82.415771%)" offset="0.414063"/><stop stop-opacity="1" stop-color="rgb(78.263855%, 42.6651%, 82.88269%)" offset="0.417969"/><stop stop-opacity="1" stop-color="rgb(78.088379%, 42.779541%, 83.349609%)" offset="0.421875"/><stop stop-opacity="1" stop-color="rgb(77.912903%, 42.892456%, 83.816528%)" offset="0.425781"/><stop stop-opacity="1" stop-color="rgb(77.737427%, 43.006897%, 84.283447%)" offset="0.429688"/><stop stop-opacity="1" stop-color="rgb(77.561951%, 43.119812%, 84.750366%)" offset="0.433594"/><stop stop-opacity="1" stop-color="rgb(77.386475%, 43.232727%, 85.217285%)" offset="0.4375"/><stop stop-opacity="1" stop-color="rgb(77.210999%, 43.345642%, 85.684204%)" offset="0.441406"/><stop stop-opacity="1" stop-color="rgb(77.035522%, 43.460083%, 86.151123%)" offset="0.445313"/><stop stop-opacity="1" stop-color="rgb(76.860046%, 43.572998%, 86.618042%)" offset="0.449219"/><stop stop-opacity="1" stop-color="rgb(76.68457%, 43.687439%, 87.084961%)" offset="0.453125"/><stop stop-opacity="1" stop-color="rgb(76.509094%, 43.800354%, 87.550354%)" offset="0.457031"/><stop stop-opacity="1" stop-color="rgb(76.333618%, 43.913269%, 88.017273%)" offset="0.460938"/><stop stop-opacity="1" stop-color="rgb(76.158142%, 44.026184%, 88.484192%)" offset="0.464844"/><stop stop-opacity="1" stop-color="rgb(75.982666%, 44.140625%, 88.951111%)" offset="0.46875"/><stop stop-opacity="1" stop-color="rgb(75.80719%, 44.25354%, 89.41803%)" offset="0.472656"/><stop stop-opacity="1" stop-color="rgb(75.631714%, 44.366455%, 89.884949%)" offset="0.476563"/><stop stop-opacity="1" stop-color="rgb(75.456238%, 44.47937%, 90.351868%)" offset="0.480469"/><stop stop-opacity="1" stop-color="rgb(75.280762%, 44.593811%, 90.818787%)" offset="0.484375"/><stop stop-opacity="1" stop-color="rgb(75.105286%, 44.706726%, 91.285706%)" offset="0.488281"/><stop stop-opacity="1" stop-color="rgb(74.92981%, 44.821167%, 91.752625%)" offset="0.492188"/><stop stop-opacity="1" stop-color="rgb(74.754333%, 44.934082%, 92.219543%)" offset="0.496094"/><stop stop-opacity="1" stop-color="rgb(74.578857%, 45.046997%, 92.686462%)" offset="0.5"/><stop stop-opacity="1" stop-color="rgb(74.111938%, 45.266724%, 92.782593%)" offset="0.503906"/><stop stop-opacity="1" stop-color="rgb(73.64502%, 45.487976%, 92.880249%)" offset="0.507813"/><stop stop-opacity="1" stop-color="rgb(73.091125%, 45.739746%, 92.866516%)" offset="0.511719"/><stop stop-opacity="1" stop-color="rgb(72.538757%, 45.991516%, 92.854309%)" offset="0.515625"/><stop stop-opacity="1" stop-color="rgb(71.984863%, 46.243286%, 92.842102%)" offset="0.519531"/><stop stop-opacity="1" stop-color="rgb(71.432495%, 46.496582%, 92.829895%)" offset="0.523438"/><stop stop-opacity="1" stop-color="rgb(70.878601%, 46.748352%, 92.817688%)" offset="0.527344"/><stop stop-opacity="1" stop-color="rgb(70.326233%, 47.000122%, 92.805481%)" offset="0.53125"/><stop stop-opacity="1" stop-color="rgb(69.772339%, 47.251892%, 92.791748%)" offset="0.535156"/><stop stop-opacity="1" stop-color="rgb(69.219971%, 47.503662%, 92.779541%)" offset="0.539063"/><stop stop-opacity="1" stop-color="rgb(68.666077%, 47.755432%, 92.767334%)" offset="0.542969"/><stop stop-opacity="1" stop-color="rgb(68.113708%, 48.007202%, 92.755127%)" offset="0.546875"/><stop stop-opacity="1" stop-color="rgb(67.559814%, 48.258972%, 92.741394%)" offset="0.550781"/><stop stop-opacity="1" stop-color="rgb(67.007446%, 48.510742%, 92.729187%)" offset="0.554688"/><stop stop-opacity="1" stop-color="rgb(66.453552%, 48.762512%, 92.71698%)" offset="0.558594"/><stop stop-opacity="1" stop-color="rgb(65.901184%, 49.015808%, 92.704773%)" offset="0.5625"/><stop stop-opacity="1" stop-color="rgb(65.34729%, 49.267578%, 92.692566%)" offset="0.566406"/><stop stop-opacity="1" stop-color="rgb(64.794922%, 49.519348%, 92.680359%)" offset="0.570313"/><stop stop-opacity="1" stop-color="rgb(64.241028%, 49.771118%, 92.666626%)" offset="0.574219"/><stop stop-opacity="1" stop-color="rgb(63.68866%, 50.022888%, 92.654419%)" offset="0.578125"/><stop stop-opacity="1" stop-color="rgb(63.134766%, 50.274658%, 92.642212%)" offset="0.582031"/><stop stop-opacity="1" stop-color="rgb(62.582397%, 50.526428%, 92.630005%)" offset="0.585938"/><stop stop-opacity="1" stop-color="rgb(62.028503%, 50.778198%, 92.616272%)" offset="0.589844"/><stop stop-opacity="1" stop-color="rgb(61.476135%, 51.031494%, 92.604065%)" offset="0.59375"/><stop stop-opacity="1" stop-color="rgb(60.922241%, 51.283264%, 92.591858%)" offset="0.597656"/><stop stop-opacity="1" stop-color="rgb(60.369873%, 51.535034%, 92.579651%)" offset="0.601563"/><stop stop-opacity="1" stop-color="rgb(59.815979%, 51.786804%, 92.567444%)" offset="0.605469"/><stop stop-opacity="1" stop-color="rgb(59.263611%, 52.038574%, 92.555237%)" offset="0.609375"/><stop stop-opacity="1" stop-color="rgb(58.709717%, 52.290344%, 92.541504%)" offset="0.613281"/><stop stop-opacity="1" stop-color="rgb(58.157349%, 52.542114%, 92.529297%)" offset="0.617188"/><stop stop-opacity="1" stop-color="rgb(57.603455%, 52.793884%, 92.51709%)" offset="0.621094"/><stop stop-opacity="1" stop-color="rgb(57.051086%, 53.04718%, 92.504883%)" offset="0.625"/><stop stop-opacity="1" stop-color="rgb(56.497192%, 53.29895%, 92.49115%)" offset="0.628906"/><stop stop-opacity="1" stop-color="rgb(55.944824%, 53.55072%, 92.478943%)" offset="0.632812"/><stop stop-opacity="1" stop-color="rgb(55.39093%, 53.80249%, 92.466736%)" offset="0.636719"/><stop stop-opacity="1" stop-color="rgb(54.838562%, 54.05426%, 92.454529%)" offset="0.640625"/><stop stop-opacity="1" stop-color="rgb(54.284668%, 54.30603%, 92.442322%)" offset="0.644531"/><stop stop-opacity="1" stop-color="rgb(53.7323%, 54.5578%, 92.430115%)" offset="0.648438"/><stop stop-opacity="1" stop-color="rgb(53.178406%, 54.80957%, 92.416382%)" offset="0.652344"/><stop stop-opacity="1" stop-color="rgb(52.626038%, 55.062866%, 92.404175%)" offset="0.65625"/><stop stop-opacity="1" stop-color="rgb(52.072144%, 55.314636%, 92.391968%)" offset="0.660156"/><stop stop-opacity="1" stop-color="rgb(51.519775%, 55.566406%, 92.379761%)" offset="0.664062"/><stop stop-opacity="1" stop-color="rgb(50.965881%, 55.818176%, 92.366028%)" offset="0.667969"/><stop stop-opacity="1" stop-color="rgb(50.413513%, 56.069946%, 92.353821%)" offset="0.671875"/><stop stop-opacity="1" stop-color="rgb(49.859619%, 56.321716%, 92.341614%)" offset="0.675781"/><stop stop-opacity="1" stop-color="rgb(49.307251%, 56.573486%, 92.329407%)" offset="0.679688"/><stop stop-opacity="1" stop-color="rgb(48.753357%, 56.825256%, 92.3172%)" offset="0.683594"/><stop stop-opacity="1" stop-color="rgb(48.200989%, 57.078552%, 92.304993%)" offset="0.6875"/><stop stop-opacity="1" stop-color="rgb(47.647095%, 57.330322%, 92.29126%)" offset="0.691406"/><stop stop-opacity="1" stop-color="rgb(47.094727%, 57.582092%, 92.279053%)" offset="0.695312"/><stop stop-opacity="1" stop-color="rgb(46.540833%, 57.833862%, 92.266846%)" offset="0.699219"/><stop stop-opacity="1" stop-color="rgb(45.988464%, 58.085632%, 92.254639%)" offset="0.703125"/><stop stop-opacity="1" stop-color="rgb(45.43457%, 58.337402%, 92.240906%)" offset="0.707031"/><stop stop-opacity="1" stop-color="rgb(44.882202%, 58.589172%, 92.228699%)" offset="0.710938"/><stop stop-opacity="1" stop-color="rgb(44.328308%, 58.840942%, 92.216492%)" offset="0.714844"/><stop stop-opacity="1" stop-color="rgb(43.77594%, 59.094238%, 92.204285%)" offset="0.71875"/><stop stop-opacity="1" stop-color="rgb(43.222046%, 59.346008%, 92.192078%)" offset="0.722656"/><stop stop-opacity="1" stop-color="rgb(42.669678%, 59.597778%, 92.179871%)" offset="0.726562"/><stop stop-opacity="1" stop-color="rgb(42.115784%, 59.849548%, 92.166138%)" offset="0.730469"/><stop stop-opacity="1" stop-color="rgb(41.563416%, 60.101318%, 92.153931%)" offset="0.734375"/><stop stop-opacity="1" stop-color="rgb(41.009521%, 60.353088%, 92.141724%)" offset="0.738281"/><stop stop-opacity="1" stop-color="rgb(40.457153%, 60.604858%, 92.129517%)" offset="0.742188"/><stop stop-opacity="1" stop-color="rgb(39.903259%, 60.856628%, 92.115784%)" offset="0.746094"/><stop stop-opacity="1" stop-color="rgb(39.350891%, 61.109924%, 92.103577%)" offset="0.75"/><stop stop-opacity="1" stop-color="rgb(38.796997%, 61.361694%, 92.09137%)" offset="0.753906"/><stop stop-opacity="1" stop-color="rgb(38.244629%, 61.613464%, 92.079163%)" offset="0.757813"/><stop stop-opacity="1" stop-color="rgb(37.690735%, 61.865234%, 92.06543%)" offset="0.761719"/><stop stop-opacity="1" stop-color="rgb(37.138367%, 62.117004%, 92.053223%)" offset="0.765625"/><stop stop-opacity="1" stop-color="rgb(36.584473%, 62.368774%, 92.041016%)" offset="0.769531"/><stop stop-opacity="1" stop-color="rgb(36.032104%, 62.620544%, 92.028809%)" offset="0.773438"/><stop stop-opacity="1" stop-color="rgb(35.47821%, 62.872314%, 92.016602%)" offset="0.777344"/><stop stop-opacity="1" stop-color="rgb(34.925842%, 63.12561%, 92.004395%)" offset="0.78125"/><stop stop-opacity="1" stop-color="rgb(34.371948%, 63.37738%, 91.990662%)" offset="0.785156"/><stop stop-opacity="1" stop-color="rgb(33.81958%, 63.62915%, 91.978455%)" offset="0.789063"/><stop stop-opacity="1" stop-color="rgb(33.265686%, 63.88092%, 91.966248%)" offset="0.792969"/><stop stop-opacity="1" stop-color="rgb(32.713318%, 64.13269%, 91.954041%)" offset="0.796875"/><stop stop-opacity="1" stop-color="rgb(32.159424%, 64.38446%, 91.940308%)" offset="0.800781"/><stop stop-opacity="1" stop-color="rgb(31.607056%, 64.63623%, 91.928101%)" offset="0.804688"/><stop stop-opacity="1" stop-color="rgb(31.053162%, 64.888%, 91.915894%)" offset="0.808594"/><stop stop-opacity="1" stop-color="rgb(30.500793%, 65.141296%, 91.903687%)" offset="0.8125"/><stop stop-opacity="1" stop-color="rgb(29.946899%, 65.393066%, 91.891479%)" offset="0.816406"/><stop stop-opacity="1" stop-color="rgb(29.394531%, 65.644836%, 91.879272%)" offset="0.820313"/><stop stop-opacity="1" stop-color="rgb(28.840637%, 65.896606%, 91.86554%)" offset="0.824219"/><stop stop-opacity="1" stop-color="rgb(28.288269%, 66.148376%, 91.853333%)" offset="0.828125"/><stop stop-opacity="1" stop-color="rgb(27.734375%, 66.400146%, 91.841125%)" offset="0.832031"/><stop stop-opacity="1" stop-color="rgb(27.182007%, 66.651917%, 91.828918%)" offset="0.835938"/><stop stop-opacity="1" stop-color="rgb(26.628113%, 66.903687%, 91.815186%)" offset="0.839844"/><stop stop-opacity="1" stop-color="rgb(26.075745%, 67.156982%, 91.802979%)" offset="0.84375"/><stop stop-opacity="1" stop-color="rgb(25.521851%, 67.408752%, 91.790771%)" offset="0.847656"/><stop stop-opacity="1" stop-color="rgb(24.969482%, 67.660522%, 91.778564%)" offset="0.851563"/><stop stop-opacity="1" stop-color="rgb(24.415588%, 67.912292%, 91.766357%)" offset="0.855469"/><stop stop-opacity="1" stop-color="rgb(23.86322%, 68.164062%, 91.75415%)" offset="0.859375"/><stop stop-opacity="1" stop-color="rgb(23.309326%, 68.415833%, 91.740417%)" offset="0.863281"/><stop stop-opacity="1" stop-color="rgb(22.756958%, 68.667603%, 91.72821%)" offset="0.867188"/><stop stop-opacity="1" stop-color="rgb(22.203064%, 68.919373%, 91.716003%)" offset="0.871094"/><stop stop-opacity="1" stop-color="rgb(21.650696%, 69.171143%, 91.703796%)" offset="0.875"/><stop stop-opacity="1" stop-color="rgb(21.096802%, 69.422913%, 91.690063%)" offset="0.878906"/><stop stop-opacity="1" stop-color="rgb(20.544434%, 69.676208%, 91.677856%)" offset="0.882813"/><stop stop-opacity="1" stop-color="rgb(19.99054%, 69.927979%, 91.665649%)" offset="0.886719"/><stop stop-opacity="1" stop-color="rgb(19.438171%, 70.179749%, 91.653442%)" offset="0.890625"/><stop stop-opacity="1" stop-color="rgb(18.884277%, 70.431519%, 91.641235%)" offset="0.894531"/><stop stop-opacity="1" stop-color="rgb(18.331909%, 70.683289%, 91.629028%)" offset="0.898438"/><stop stop-opacity="1" stop-color="rgb(17.778015%, 70.935059%, 91.615295%)" offset="0.902344"/><stop stop-opacity="1" stop-color="rgb(17.225647%, 71.186829%, 91.603088%)" offset="0.90625"/><stop stop-opacity="1" stop-color="rgb(16.671753%, 71.438599%, 91.590881%)" offset="0.910156"/><stop stop-opacity="1" stop-color="rgb(16.119385%, 71.691895%, 91.578674%)" offset="0.914063"/><stop stop-opacity="1" stop-color="rgb(15.565491%, 71.943665%, 91.564941%)" offset="0.917969"/><stop stop-opacity="1" stop-color="rgb(15.013123%, 72.195435%, 91.552734%)" offset="0.921875"/><stop stop-opacity="1" stop-color="rgb(14.459229%, 72.447205%, 91.540527%)" offset="0.925781"/><stop stop-opacity="1" stop-color="rgb(13.90686%, 72.698975%, 91.52832%)" offset="0.929688"/><stop stop-opacity="1" stop-color="rgb(13.352966%, 72.950745%, 91.516113%)" offset="0.933594"/><stop stop-opacity="1" stop-color="rgb(12.800598%, 73.202515%, 91.503906%)" offset="0.9375"/><stop stop-opacity="1" stop-color="rgb(12.246704%, 73.454285%, 91.490173%)" offset="0.941406"/><stop stop-opacity="1" stop-color="rgb(11.694336%, 73.707581%, 91.477966%)" offset="0.945313"/><stop stop-opacity="1" stop-color="rgb(11.140442%, 73.959351%, 91.465759%)" offset="0.949219"/><stop stop-opacity="1" stop-color="rgb(10.588074%, 74.211121%, 91.453552%)" offset="0.953125"/><stop stop-opacity="1" stop-color="rgb(10.03418%, 74.462891%, 91.439819%)" offset="0.957031"/><stop stop-opacity="1" stop-color="rgb(9.481812%, 74.714661%, 91.427612%)" offset="0.960938"/><stop stop-opacity="1" stop-color="rgb(8.927917%, 74.966431%, 91.415405%)" offset="0.964844"/><stop stop-opacity="1" stop-color="rgb(8.375549%, 75.218201%, 91.403198%)" offset="0.96875"/><stop stop-opacity="1" stop-color="rgb(8.287048%, 75.257874%, 91.400146%)" offset="1"/></linearGradient></defs><g clip-path="url(#41e4aa1ea5)"><g clip-path="url(#f1d09dab9f)"><path fill="url(#8d4174d3a5)" d="M 1.191406 0.0898438 L 1.191406 142.3125 L 149.632812 142.3125 L 149.632812 0.0898438 Z M 1.191406 0.0898438 " fill-rule="nonzero"/></g></g></svg>