<svg xmlns="http://www.w3.org/2000/svg" xmlns:xlink="http://www.w3.org/1999/xlink" width="200" zoomAndPan="magnify" viewBox="0 0 150 149.999998" height="200" preserveAspectRatio="xMidYMid meet" version="1.0"><defs><clipPath id="2ce5f8764d"><path d="M 141.25 12.5 L 103.03125 12.5 L 97.980469 7.449219 C 97.171875 6.636719 95.910156 6.480469 94.925781 7.070312 L 88.703125 10.804688 C 87.25 10.058594 85.738281 9.433594 84.1875 8.933594 L 82.425781 1.894531 C 82.148438 0.78125 81.148438 0 80 0 L 70 0 C 68.851562 0 67.851562 0.78125 67.574219 1.894531 L 65.8125 8.933594 C 64.261719 9.433594 62.75 10.058594 61.296875 10.804688 L 55.074219 7.070312 C 54.089844 6.480469 52.832031 6.636719 52.019531 7.449219 L 46.96875 12.5 L 8.75 12.5 C 3.925781 12.5 0 16.425781 0 21.25 L 0 108.75 C 0 113.574219 3.925781 117.5 8.75 117.5 L 60.898438 117.5 C 60.042969 121.921875 57.890625 126.074219 54.550781 129.414062 L 53.964844 130 L 50.582031 130 C 46.164062 130 42.257812 132.816406 40.863281 137.003906 L 38.511719 144.0625 C 38.054688 145.433594 38.285156 146.953125 39.128906 148.125 C 39.976562 149.300781 41.34375 150 42.789062 150 L 107.210938 150 C 108.65625 150 110.023438 149.300781 110.867188 148.125 C 111.714844 146.953125 111.945312 145.433594 111.488281 144.0625 L 109.136719 137.007812 C 107.742188 132.816406 103.835938 130 99.417969 130 L 96.035156 130 L 95.449219 129.414062 C 92.109375 126.074219 89.964844 121.921875 89.109375 117.5 L 141.25 117.5 C 146.074219 117.5 150 113.574219 150 108.75 L 150 21.25 C 150 16.425781 146.074219 12.5 141.25 12.5 Z M 53.332031 22.453125 L 49.863281 16.675781 L 54.175781 12.363281 L 59.953125 15.832031 C 60.730469 16.296875 61.703125 16.304688 62.492188 15.851562 C 64.386719 14.753906 66.421875 13.910156 68.539062 13.34375 C 69.414062 13.109375 70.097656 12.417969 70.316406 11.535156 L 71.953125 5 L 78.046875 5 L 79.683594 11.535156 C 79.902344 12.417969 80.585938 13.109375 81.460938 13.34375 C 83.578125 13.910156 85.613281 14.753906 87.507812 15.851562 C 88.296875 16.304688 89.269531 16.296875 90.046875 15.832031 L 95.824219 12.363281 L 100.136719 16.675781 L 96.667969 22.453125 C 96.203125 23.230469 96.195312 24.203125 96.648438 24.992188 C 97.746094 26.886719 98.589844 28.921875 99.15625 31.039062 C 99.390625 31.914062 100.082031 32.597656 100.964844 32.816406 L 107.5 34.453125 L 107.5 40.546875 L 100.964844 42.183594 C 100.082031 42.402344 99.390625 43.085938 99.15625 43.960938 C 98.589844 46.078125 97.746094 48.113281 96.648438 50.007812 C 96.195312 50.796875 96.203125 51.769531 96.667969 52.546875 L 100.136719 58.324219 L 95.824219 62.636719 L 90.046875 59.167969 C 89.269531 58.703125 88.296875 58.695312 87.507812 59.148438 C 85.613281 60.246094 83.578125 61.089844 81.460938 61.65625 C 80.585938 61.890625 79.902344 62.582031 79.683594 63.464844 L 78.046875 70 L 71.953125 70 L 70.316406 63.464844 C 70.097656 62.582031 69.414062 61.890625 68.539062 61.65625 C 66.421875 61.089844 64.386719 60.246094 62.492188 59.148438 C 61.703125 58.695312 60.730469 58.703125 59.953125 59.167969 L 54.175781 62.636719 L 49.863281 58.324219 L 53.332031 52.546875 C 53.796875 51.769531 53.804688 50.796875 53.351562 50.007812 C 52.253906 48.113281 51.410156 46.078125 50.84375 43.960938 C 50.609375 43.085938 49.917969 42.402344 49.035156 42.183594 L 42.5 40.546875 L 42.5 34.453125 L 49.035156 32.816406 C 49.917969 32.597656 50.609375 31.914062 50.84375 31.039062 C 51.410156 28.921875 52.253906 26.886719 53.351562 24.992188 C 53.804688 24.203125 53.796875 23.230469 53.332031 22.453125 Z M 109.777344 45.132812 L 110.152344 46.628906 C 110.371094 47.507812 111.054688 48.203125 111.933594 48.4375 C 113.382812 48.824219 114.777344 49.402344 116.078125 50.152344 C 116.863281 50.609375 117.835938 50.601562 118.617188 50.132812 L 122.265625 47.945312 L 124.554688 50.234375 L 122.367188 53.882812 C 121.898438 54.664062 121.890625 55.636719 122.347656 56.421875 C 123.097656 57.722656 123.675781 59.117188 124.0625 60.566406 C 124.296875 61.445312 124.992188 62.128906 125.871094 62.347656 L 130 63.378906 L 130 66.621094 L 125.871094 67.652344 C 124.992188 67.871094 124.296875 68.554688 124.0625 69.433594 C 123.675781 70.882812 123.097656 72.277344 122.347656 73.578125 C 121.890625 74.363281 121.898438 75.335938 122.367188 76.117188 L 124.554688 79.765625 L 122.265625 82.054688 L 118.617188 79.867188 C 117.835938 79.398438 116.863281 79.390625 116.078125 79.84375 C 114.777344 80.597656 113.382812 81.175781 111.933594 81.5625 C 111.054688 81.796875 110.371094 82.492188 110.152344 83.371094 L 109.121094 87.5 L 105.878906 87.5 L 104.847656 83.371094 C 104.628906 82.492188 103.945312 81.796875 103.066406 81.5625 C 101.617188 81.175781 100.222656 80.597656 98.921875 79.847656 C 98.136719 79.390625 97.164062 79.398438 96.382812 79.867188 L 92.734375 82.054688 L 90.445312 79.765625 L 92.632812 76.117188 C 93.101562 75.335938 93.109375 74.363281 92.65625 73.578125 C 91.902344 72.277344 91.324219 70.882812 90.9375 69.433594 C 90.703125 68.554688 90.007812 67.871094 89.128906 67.652344 L 85 66.621094 L 85 65.785156 C 86.269531 65.335938 87.507812 64.808594 88.703125 64.195312 L 92.578125 66.519531 C 93.339844 74.078125 99.742188 80 107.5 80 C 115.769531 80 122.5 73.269531 122.5 65 C 122.5 56.730469 115.769531 50 107.5 50 C 105.445312 50 103.492188 50.417969 101.710938 51.167969 C 102.449219 49.726562 103.070312 48.226562 103.566406 46.6875 Z M 105.050781 60.480469 C 105.863281 59.667969 106.019531 58.410156 105.429688 57.425781 L 104.292969 55.535156 C 105.300781 55.191406 106.378906 55 107.5 55 C 113.015625 55 117.5 59.484375 117.5 65 C 117.5 70.515625 113.015625 75 107.5 75 C 102.90625 75 99.027344 71.882812 97.859375 67.652344 C 97.898438 67.617188 97.941406 67.589844 97.980469 67.550781 Z M 22.652344 71.078125 C 21.902344 69.777344 21.324219 68.382812 20.9375 66.933594 C 20.703125 66.054688 20.007812 65.371094 19.128906 65.152344 L 15 64.121094 L 15 60.878906 L 19.128906 59.847656 C 20.007812 59.628906 20.703125 58.945312 20.9375 58.066406 C 21.324219 56.617188 21.902344 55.222656 22.652344 53.921875 C 23.109375 53.136719 23.101562 52.164062 22.632812 51.382812 L 20.445312 47.734375 L 22.734375 45.445312 L 26.382812 47.632812 C 27.164062 48.101562 28.136719 48.109375 28.921875 47.65625 C 30.222656 46.902344 31.617188 46.324219 33.066406 45.9375 C 33.945312 45.703125 34.628906 45.007812 34.847656 44.128906 L 35.878906 40 L 37.5 40 L 37.5 42.5 C 37.5 43.648438 38.28125 44.648438 39.394531 44.925781 L 46.433594 46.6875 C 46.933594 48.238281 47.5625 49.75 48.308594 51.203125 L 47.960938 51.78125 C 45.257812 49.136719 41.570312 47.5 37.5 47.5 C 29.230469 47.5 22.5 54.230469 22.5 62.5 C 22.5 70.769531 29.230469 77.5 37.5 77.5 C 44.109375 77.5 49.730469 73.203125 51.722656 67.253906 L 52.019531 67.550781 C 52.464844 67.996094 53.046875 68.238281 53.644531 68.273438 C 53.296875 69.242188 52.863281 70.183594 52.347656 71.078125 C 51.890625 71.863281 51.898438 72.835938 52.367188 73.617188 L 54.554688 77.265625 L 52.265625 79.554688 L 48.617188 77.367188 C 47.835938 76.898438 46.863281 76.890625 46.078125 77.347656 C 44.777344 78.097656 43.382812 78.675781 41.933594 79.0625 C 41.054688 79.296875 40.371094 79.992188 40.152344 80.871094 L 39.121094 85 L 35.878906 85 L 34.847656 80.871094 C 34.628906 79.992188 33.945312 79.296875 33.066406 79.0625 C 31.617188 78.675781 30.222656 78.097656 28.921875 77.347656 C 28.136719 76.890625 27.164062 76.898438 26.382812 77.367188 L 22.734375 79.554688 L 20.445312 77.265625 L 22.632812 73.617188 C 23.101562 72.835938 23.109375 71.863281 22.652344 71.078125 Z M 44.949219 60.480469 L 47.484375 63.019531 C 47.214844 68.292969 42.839844 72.5 37.5 72.5 C 31.984375 72.5 27.5 68.015625 27.5 62.5 C 27.5 56.984375 31.984375 52.5 37.5 52.5 C 40.644531 52.5 43.449219 53.964844 45.285156 56.242188 L 44.570312 57.425781 C 43.980469 58.410156 44.136719 59.667969 44.949219 60.480469 Z M 8.75 17.5 L 44.535156 17.5 C 44.550781 17.523438 44.558594 17.550781 44.570312 17.574219 L 48.308594 23.796875 C 47.5625 25.25 46.933594 26.761719 46.433594 28.3125 L 39.394531 30.074219 C 38.28125 30.351562 37.5 31.351562 37.5 32.5 L 37.5 35 L 33.929688 35 C 32.78125 35 31.78125 35.78125 31.503906 36.894531 L 30.339844 41.542969 C 29.453125 41.84375 28.585938 42.203125 27.742188 42.617188 L 23.632812 40.152344 C 22.648438 39.5625 21.390625 39.71875 20.578125 40.527344 L 15.527344 45.578125 C 14.71875 46.390625 14.5625 47.648438 15.152344 48.632812 L 17.617188 52.742188 C 17.203125 53.585938 16.84375 54.453125 16.542969 55.339844 L 11.894531 56.503906 C 10.78125 56.78125 10 57.78125 10 58.929688 L 10 66.070312 C 10 67.21875 10.78125 68.21875 11.894531 68.496094 L 16.542969 69.660156 C 16.84375 70.546875 17.203125 71.414062 17.617188 72.257812 L 15.152344 76.367188 C 14.5625 77.347656 14.71875 78.609375 15.527344 79.417969 L 20.578125 84.46875 C 21.390625 85.28125 22.648438 85.4375 23.632812 84.847656 L 27.742188 82.382812 C 28.585938 82.792969 29.453125 83.15625 30.339844 83.457031 L 31.503906 88.105469 C 31.78125 89.21875 32.78125 90 33.929688 90 L 41.070312 90 C 42.21875 90 43.21875 89.21875 43.496094 88.105469 L 44.660156 83.457031 C 45.546875 83.15625 46.414062 82.792969 47.257812 82.382812 L 51.367188 84.847656 C 52.347656 85.4375 53.609375 85.28125 54.417969 84.46875 L 59.46875 79.417969 C 60.28125 78.609375 60.4375 77.347656 59.847656 76.367188 L 57.382812 72.257812 C 57.792969 71.414062 58.15625 70.546875 58.457031 69.660156 L 63.105469 68.496094 C 64.21875 68.21875 65 67.21875 65 66.070312 L 65 65.785156 C 65.269531 65.878906 65.539062 65.976562 65.8125 66.066406 L 67.574219 73.105469 C 67.851562 74.21875 68.851562 75 70 75 L 80 75 C 81.148438 75 82.148438 74.21875 82.425781 73.105469 L 82.890625 71.246094 L 86.542969 72.160156 C 86.84375 73.046875 87.203125 73.914062 87.617188 74.757812 L 85.152344 78.867188 C 84.5625 79.851562 84.71875 81.109375 85.527344 81.921875 L 90.578125 86.972656 C 91.390625 87.78125 92.648438 87.9375 93.632812 87.347656 L 97.742188 84.882812 C 98.585938 85.296875 99.453125 85.65625 100.339844 85.957031 L 101.503906 90.605469 C 101.78125 91.71875 102.78125 92.5 103.929688 92.5 L 111.070312 92.5 C 112.21875 92.5 113.21875 91.71875 113.496094 90.605469 L 114.65625 85.957031 C 115.546875 85.65625 116.414062 85.296875 117.257812 84.882812 L 121.363281 87.347656 C 122.347656 87.9375 123.609375 87.78125 124.417969 86.972656 L 129.46875 81.921875 C 130.28125 81.109375 130.4375 79.851562 129.847656 78.867188 L 127.378906 74.757812 C 127.792969 73.914062 128.152344 73.046875 128.457031 72.160156 L 133.105469 70.996094 C 134.21875 70.71875 135 69.71875 135 68.570312 L 135 61.429688 C 135 60.28125 134.21875 59.28125 133.105469 59.003906 L 128.457031 57.839844 C 128.152344 56.953125 127.792969 56.085938 127.378906 55.242188 L 129.847656 51.132812 C 130.4375 50.152344 130.28125 48.890625 129.46875 48.082031 L 124.417969 43.03125 C 123.609375 42.21875 122.347656 42.0625 121.363281 42.652344 L 117.257812 45.117188 C 116.414062 44.707031 115.546875 44.34375 114.65625 44.042969 L 113.496094 39.394531 C 113.34375 38.792969 112.980469 38.292969 112.5 37.957031 L 112.5 32.5 C 112.5 31.351562 111.71875 30.351562 110.605469 30.074219 L 103.5625 28.3125 C 103.066406 26.761719 102.4375 25.25 101.691406 23.796875 L 105.425781 17.574219 C 105.441406 17.550781 105.449219 17.523438 105.460938 17.5 L 141.25 17.5 C 143.316406 17.5 145 19.183594 145 21.25 L 145 97.5 L 5 97.5 L 5 21.25 C 5 19.183594 6.683594 17.5 8.75 17.5 Z M 104.394531 138.585938 L 106.53125 145 L 43.46875 145 L 45.605469 138.585938 C 46.320312 136.441406 48.320312 135 50.582031 135 L 99.417969 135 C 101.679688 135 103.679688 136.441406 104.394531 138.585938 Z M 89.34375 130 L 60.644531 130 C 63.464844 126.28125 65.277344 121.992188 65.984375 117.5 L 84.023438 117.5 C 84.730469 121.992188 86.53125 126.285156 89.34375 130 Z M 141.25 112.5 L 8.75 112.5 C 6.683594 112.5 5 110.816406 5 108.75 L 5 102.5 L 145 102.5 L 145 108.75 C 145 110.816406 143.316406 112.5 141.25 112.5 Z M 90 107.5 C 90 108.878906 88.878906 110 87.5 110 L 62.5 110 C 61.121094 110 60 108.878906 60 107.5 C 60 106.121094 61.121094 105 62.5 105 L 87.5 105 C 88.878906 105 90 106.121094 90 107.5 Z M 140 107.5 C 140 108.878906 138.878906 110 137.5 110 L 132.5 110 C 131.121094 110 130 108.878906 130 107.5 C 130 106.121094 131.121094 105 132.5 105 L 137.5 105 C 138.878906 105 140 106.121094 140 107.5 Z M 127.5 107.5 C 127.5 108.878906 126.378906 110 125 110 L 120 110 C 118.621094 110 117.5 108.878906 117.5 107.5 C 117.5 106.121094 118.621094 105 120 105 L 125 105 C 126.378906 105 127.5 106.121094 127.5 107.5 Z M 115 107.5 C 115 108.878906 113.878906 110 112.5 110 L 107.5 110 C 106.121094 110 105 108.878906 105 107.5 C 105 106.121094 106.121094 105 107.5 105 L 112.5 105 C 113.878906 105 115 106.121094 115 107.5 Z M 15.007812 107.5 C 15.007812 108.878906 13.886719 110 12.507812 110 C 11.125 110 10.003906 108.878906 10.003906 107.5 C 10.003906 106.121094 11.121094 105 12.503906 105 L 12.507812 105 C 13.886719 105 15.007812 106.121094 15.007812 107.5 Z M 22.507812 107.5 C 22.507812 108.878906 21.386719 110 20.007812 110 C 18.625 110 17.503906 108.878906 17.503906 107.5 C 17.503906 106.121094 18.621094 105 20.003906 105 L 20.007812 105 C 21.386719 105 22.507812 106.121094 22.507812 107.5 Z M 30.007812 107.5 C 30.007812 108.878906 28.886719 110 27.507812 110 C 26.125 110 25.003906 108.878906 25.003906 107.5 C 25.003906 106.121094 26.121094 105 27.503906 105 L 27.507812 105 C 28.886719 105 30.007812 106.121094 30.007812 107.5 Z M 75 57.5 C 86.027344 57.5 95 48.527344 95 37.5 C 95 26.472656 86.027344 17.5 75 17.5 C 63.972656 17.5 55 26.472656 55 37.5 C 55 48.527344 63.972656 57.5 75 57.5 Z M 75 22.5 C 83.269531 22.5 90 29.230469 90 37.5 C 90 45.769531 83.269531 52.5 75 52.5 C 66.730469 52.5 60 45.769531 60 37.5 C 60 29.230469 66.730469 22.5 75 22.5 Z M 75 22.5 " clip-rule="nonzero"/></clipPath><linearGradient x1="-0.00000934" gradientTransform="matrix(0.3125, 0, 0, 0.3125, -4.999998, -4.999998)" y1="480.000018" x2="480.000001" gradientUnits="userSpaceOnUse" y2="0.00000762" id="1e5b706eb7"><stop stop-opacity="1" stop-color="rgb(36.898804%, 73.699951%, 89.7995%)" offset="0"/><stop stop-opacity="1" stop-color="rgb(36.898804%, 73.699951%, 89.7995%)" offset="0.125"/><stop stop-opacity="1" stop-color="rgb(37.19635%, 73.469543%, 89.802551%)" offset="0.128906"/><stop stop-opacity="1" stop-color="rgb(37.495422%, 73.239136%, 89.805603%)" offset="0.132812"/><stop stop-opacity="1" stop-color="rgb(37.811279%, 72.994995%, 89.808655%)" offset="0.136719"/><stop stop-opacity="1" stop-color="rgb(38.127136%, 72.75238%, 89.813232%)" offset="0.140625"/><stop stop-opacity="1" stop-color="rgb(38.442993%, 72.50824%, 89.816284%)" offset="0.144531"/><stop stop-opacity="1" stop-color="rgb(38.75885%, 72.265625%, 89.820862%)" offset="0.148438"/><stop stop-opacity="1" stop-color="rgb(39.074707%, 72.021484%, 89.823914%)" offset="0.152344"/><stop stop-opacity="1" stop-color="rgb(39.390564%, 71.77887%, 89.828491%)" offset="0.15625"/><stop stop-opacity="1" stop-color="rgb(39.706421%, 71.534729%, 89.831543%)" offset="0.160156"/><stop stop-opacity="1" stop-color="rgb(40.022278%, 71.290588%, 89.836121%)" offset="0.164063"/><stop stop-opacity="1" stop-color="rgb(40.338135%, 71.046448%, 89.839172%)" offset="0.167969"/><stop stop-opacity="1" stop-color="rgb(40.653992%, 70.803833%, 89.842224%)" offset="0.171875"/><stop stop-opacity="1" stop-color="rgb(40.969849%, 70.559692%, 89.845276%)" offset="0.175781"/><stop stop-opacity="1" stop-color="rgb(41.285706%, 70.317078%, 89.849854%)" offset="0.179688"/><stop stop-opacity="1" stop-color="rgb(41.601562%, 70.072937%, 89.852905%)" offset="0.183594"/><stop stop-opacity="1" stop-color="rgb(41.917419%, 69.830322%, 89.857483%)" offset="0.1875"/><stop stop-opacity="1" stop-color="rgb(42.233276%, 69.586182%, 89.860535%)" offset="0.191406"/><stop stop-opacity="1" stop-color="rgb(42.549133%, 69.343567%, 89.865112%)" offset="0.195313"/><stop stop-opacity="1" stop-color="rgb(42.86499%, 69.099426%, 89.868164%)" offset="0.199219"/><stop stop-opacity="1" stop-color="rgb(43.180847%, 68.855286%, 89.872742%)" offset="0.203125"/><stop stop-opacity="1" stop-color="rgb(43.496704%, 68.611145%, 89.875793%)" offset="0.207031"/><stop stop-opacity="1" stop-color="rgb(43.812561%, 68.36853%, 89.878845%)" offset="0.210938"/><stop stop-opacity="1" stop-color="rgb(44.128418%, 68.12439%, 89.881897%)" offset="0.214844"/><stop stop-opacity="1" stop-color="rgb(44.444275%, 67.881775%, 89.886475%)" offset="0.21875"/><stop stop-opacity="1" stop-color="rgb(44.760132%, 67.637634%, 89.889526%)" offset="0.222656"/><stop stop-opacity="1" stop-color="rgb(45.075989%, 67.39502%, 89.894104%)" offset="0.226563"/><stop stop-opacity="1" stop-color="rgb(45.391846%, 67.150879%, 89.897156%)" offset="0.230469"/><stop stop-opacity="1" stop-color="rgb(45.707703%, 66.908264%, 89.901733%)" offset="0.234375"/><stop stop-opacity="1" stop-color="rgb(46.02356%, 66.664124%, 89.904785%)" offset="0.238281"/><stop stop-opacity="1" stop-color="rgb(46.339417%, 66.419983%, 89.909363%)" offset="0.242188"/><stop stop-opacity="1" stop-color="rgb(46.655273%, 66.175842%, 89.912415%)" offset="0.246094"/><stop stop-opacity="1" stop-color="rgb(46.97113%, 65.933228%, 89.915466%)" offset="0.25"/><stop stop-opacity="1" stop-color="rgb(47.286987%, 65.689087%, 89.918518%)" offset="0.253906"/><stop stop-opacity="1" stop-color="rgb(47.602844%, 65.446472%, 89.923096%)" offset="0.257812"/><stop stop-opacity="1" stop-color="rgb(47.918701%, 65.202332%, 89.926147%)" offset="0.261719"/><stop stop-opacity="1" stop-color="rgb(48.234558%, 64.959717%, 89.930725%)" offset="0.265625"/><stop stop-opacity="1" stop-color="rgb(48.550415%, 64.715576%, 89.933777%)" offset="0.269531"/><stop stop-opacity="1" stop-color="rgb(48.866272%, 64.471436%, 89.938354%)" offset="0.273438"/><stop stop-opacity="1" stop-color="rgb(49.182129%, 64.227295%, 89.941406%)" offset="0.277344"/><stop stop-opacity="1" stop-color="rgb(49.497986%, 63.98468%, 89.945984%)" offset="0.28125"/><stop stop-opacity="1" stop-color="rgb(49.813843%, 63.74054%, 89.949036%)" offset="0.285156"/><stop stop-opacity="1" stop-color="rgb(50.1297%, 63.497925%, 89.952087%)" offset="0.289063"/><stop stop-opacity="1" stop-color="rgb(50.445557%, 63.253784%, 89.955139%)" offset="0.292969"/><stop stop-opacity="1" stop-color="rgb(50.761414%, 63.011169%, 89.959717%)" offset="0.296875"/><stop stop-opacity="1" stop-color="rgb(51.077271%, 62.767029%, 89.962769%)" offset="0.300781"/><stop stop-opacity="1" stop-color="rgb(51.393127%, 62.524414%, 89.967346%)" offset="0.304688"/><stop stop-opacity="1" stop-color="rgb(51.708984%, 62.280273%, 89.970398%)" offset="0.308594"/><stop stop-opacity="1" stop-color="rgb(52.024841%, 62.036133%, 89.974976%)" offset="0.3125"/><stop stop-opacity="1" stop-color="rgb(52.340698%, 61.791992%, 89.978027%)" offset="0.316406"/><stop stop-opacity="1" stop-color="rgb(52.656555%, 61.549377%, 89.982605%)" offset="0.320313"/><stop stop-opacity="1" stop-color="rgb(52.972412%, 61.305237%, 89.985657%)" offset="0.324219"/><stop stop-opacity="1" stop-color="rgb(53.288269%, 61.062622%, 89.988708%)" offset="0.328125"/><stop stop-opacity="1" stop-color="rgb(53.604126%, 60.818481%, 89.99176%)" offset="0.332031"/><stop stop-opacity="1" stop-color="rgb(53.919983%, 60.575867%, 89.996338%)" offset="0.335938"/><stop stop-opacity="1" stop-color="rgb(54.23584%, 60.331726%, 89.99939%)" offset="0.339844"/><stop stop-opacity="1" stop-color="rgb(54.551697%, 60.089111%, 90.003967%)" offset="0.34375"/><stop stop-opacity="1" stop-color="rgb(54.867554%, 59.844971%, 90.007019%)" offset="0.347656"/><stop stop-opacity="1" stop-color="rgb(55.183411%, 59.60083%, 90.011597%)" offset="0.351562"/><stop stop-opacity="1" stop-color="rgb(55.499268%, 59.356689%, 90.014648%)" offset="0.355469"/><stop stop-opacity="1" stop-color="rgb(55.815125%, 59.114075%, 90.019226%)" offset="0.359375"/><stop stop-opacity="1" stop-color="rgb(56.130981%, 58.869934%, 90.022278%)" offset="0.363281"/><stop stop-opacity="1" stop-color="rgb(56.446838%, 58.627319%, 90.02533%)" offset="0.367188"/><stop stop-opacity="1" stop-color="rgb(56.762695%, 58.383179%, 90.028381%)" offset="0.371094"/><stop stop-opacity="1" stop-color="rgb(57.078552%, 58.140564%, 90.032959%)" offset="0.375"/><stop stop-opacity="1" stop-color="rgb(57.394409%, 57.896423%, 90.036011%)" offset="0.378906"/><stop stop-opacity="1" stop-color="rgb(57.710266%, 57.653809%, 90.040588%)" offset="0.382813"/><stop stop-opacity="1" stop-color="rgb(58.026123%, 57.409668%, 90.04364%)" offset="0.386719"/><stop stop-opacity="1" stop-color="rgb(58.34198%, 57.165527%, 90.048218%)" offset="0.390625"/><stop stop-opacity="1" stop-color="rgb(58.657837%, 56.921387%, 90.05127%)" offset="0.394531"/><stop stop-opacity="1" stop-color="rgb(58.973694%, 56.678772%, 90.055847%)" offset="0.398438"/><stop stop-opacity="1" stop-color="rgb(59.289551%, 56.434631%, 90.058899%)" offset="0.402344"/><stop stop-opacity="1" stop-color="rgb(59.605408%, 56.192017%, 90.061951%)" offset="0.40625"/><stop stop-opacity="1" stop-color="rgb(59.921265%, 55.947876%, 90.065002%)" offset="0.410156"/><stop stop-opacity="1" stop-color="rgb(60.237122%, 55.705261%, 90.06958%)" offset="0.414062"/><stop stop-opacity="1" stop-color="rgb(60.552979%, 55.461121%, 90.072632%)" offset="0.417969"/><stop stop-opacity="1" stop-color="rgb(60.868835%, 55.218506%, 90.077209%)" offset="0.421875"/><stop stop-opacity="1" stop-color="rgb(61.184692%, 54.974365%, 90.080261%)" offset="0.425781"/><stop stop-opacity="1" stop-color="rgb(61.500549%, 54.730225%, 90.084839%)" offset="0.429688"/><stop stop-opacity="1" stop-color="rgb(61.816406%, 54.486084%, 90.087891%)" offset="0.433594"/><stop stop-opacity="1" stop-color="rgb(62.132263%, 54.243469%, 90.092468%)" offset="0.4375"/><stop stop-opacity="1" stop-color="rgb(62.44812%, 53.999329%, 90.09552%)" offset="0.441406"/><stop stop-opacity="1" stop-color="rgb(62.763977%, 53.756714%, 90.098572%)" offset="0.445313"/><stop stop-opacity="1" stop-color="rgb(63.079834%, 53.512573%, 90.101624%)" offset="0.449219"/><stop stop-opacity="1" stop-color="rgb(63.395691%, 53.269958%, 90.106201%)" offset="0.453125"/><stop stop-opacity="1" stop-color="rgb(63.711548%, 53.025818%, 90.109253%)" offset="0.457031"/><stop stop-opacity="1" stop-color="rgb(64.027405%, 52.783203%, 90.113831%)" offset="0.460938"/><stop stop-opacity="1" stop-color="rgb(64.343262%, 52.539062%, 90.116882%)" offset="0.464844"/><stop stop-opacity="1" stop-color="rgb(64.659119%, 52.294922%, 90.12146%)" offset="0.46875"/><stop stop-opacity="1" stop-color="rgb(64.974976%, 52.050781%, 90.124512%)" offset="0.472656"/><stop stop-opacity="1" stop-color="rgb(65.290833%, 51.808167%, 90.129089%)" offset="0.476563"/><stop stop-opacity="1" stop-color="rgb(65.606689%, 51.564026%, 90.132141%)" offset="0.480469"/><stop stop-opacity="1" stop-color="rgb(65.922546%, 51.321411%, 90.135193%)" offset="0.484375"/><stop stop-opacity="1" stop-color="rgb(66.238403%, 51.077271%, 90.138245%)" offset="0.488281"/><stop stop-opacity="1" stop-color="rgb(66.55426%, 50.834656%, 90.142822%)" offset="0.492188"/><stop stop-opacity="1" stop-color="rgb(66.870117%, 50.590515%, 90.145874%)" offset="0.496094"/><stop stop-opacity="1" stop-color="rgb(67.185974%, 50.3479%, 90.150452%)" offset="0.5"/><stop stop-opacity="1" stop-color="rgb(67.501831%, 50.10376%, 90.153503%)" offset="0.503906"/><stop stop-opacity="1" stop-color="rgb(67.817688%, 49.859619%, 90.158081%)" offset="0.507812"/><stop stop-opacity="1" stop-color="rgb(68.133545%, 49.615479%, 90.161133%)" offset="0.511719"/><stop stop-opacity="1" stop-color="rgb(68.449402%, 49.372864%, 90.16571%)" offset="0.515625"/><stop stop-opacity="1" stop-color="rgb(68.765259%, 49.128723%, 90.168762%)" offset="0.519531"/><stop stop-opacity="1" stop-color="rgb(69.081116%, 48.886108%, 90.171814%)" offset="0.523438"/><stop stop-opacity="1" stop-color="rgb(69.396973%, 48.641968%, 90.174866%)" offset="0.527344"/><stop stop-opacity="1" stop-color="rgb(69.71283%, 48.399353%, 90.179443%)" offset="0.53125"/><stop stop-opacity="1" stop-color="rgb(70.028687%, 48.155212%, 90.182495%)" offset="0.535156"/><stop stop-opacity="1" stop-color="rgb(70.344543%, 47.912598%, 90.187073%)" offset="0.539062"/><stop stop-opacity="1" stop-color="rgb(70.6604%, 47.668457%, 90.190125%)" offset="0.542969"/><stop stop-opacity="1" stop-color="rgb(70.976257%, 47.424316%, 90.194702%)" offset="0.546875"/><stop stop-opacity="1" stop-color="rgb(71.244812%, 47.2229%, 90.022278%)" offset="0.550781"/><stop stop-opacity="1" stop-color="rgb(71.513367%, 47.02301%, 89.851379%)" offset="0.554688"/><stop stop-opacity="1" stop-color="rgb(71.685791%, 46.908569%, 89.326477%)" offset="0.558594"/><stop stop-opacity="1" stop-color="rgb(71.859741%, 46.794128%, 88.803101%)" offset="0.5625"/><stop stop-opacity="1" stop-color="rgb(72.032166%, 46.679688%, 88.279724%)" offset="0.566406"/><stop stop-opacity="1" stop-color="rgb(72.20459%, 46.565247%, 87.756348%)" offset="0.570312"/><stop stop-opacity="1" stop-color="rgb(72.377014%, 46.450806%, 87.231445%)" offset="0.574219"/><stop stop-opacity="1" stop-color="rgb(72.549438%, 46.336365%, 86.708069%)" offset="0.578125"/><stop stop-opacity="1" stop-color="rgb(72.721863%, 46.221924%, 86.183167%)" offset="0.582031"/><stop stop-opacity="1" stop-color="rgb(72.894287%, 46.107483%, 85.65979%)" offset="0.585938"/><stop stop-opacity="1" stop-color="rgb(73.066711%, 45.993042%, 85.134888%)" offset="0.589844"/><stop stop-opacity="1" stop-color="rgb(73.240662%, 45.878601%, 84.611511%)" offset="0.59375"/><stop stop-opacity="1" stop-color="rgb(73.413086%, 45.76416%, 84.086609%)" offset="0.597656"/><stop stop-opacity="1" stop-color="rgb(73.58551%, 45.649719%, 83.563232%)" offset="0.601562"/><stop stop-opacity="1" stop-color="rgb(73.757935%, 45.535278%, 83.03833%)" offset="0.605469"/><stop stop-opacity="1" stop-color="rgb(73.930359%, 45.420837%, 82.514954%)" offset="0.609375"/><stop stop-opacity="1" stop-color="rgb(74.102783%, 45.306396%, 81.991577%)" offset="0.613281"/><stop stop-opacity="1" stop-color="rgb(74.276733%, 45.191956%, 81.468201%)" offset="0.617188"/><stop stop-opacity="1" stop-color="rgb(74.449158%, 45.077515%, 80.943298%)" offset="0.621094"/><stop stop-opacity="1" stop-color="rgb(74.621582%, 44.963074%, 80.419922%)" offset="0.625"/><stop stop-opacity="1" stop-color="rgb(74.794006%, 44.848633%, 79.89502%)" offset="0.628906"/><stop stop-opacity="1" stop-color="rgb(74.966431%, 44.734192%, 79.371643%)" offset="0.632812"/><stop stop-opacity="1" stop-color="rgb(75.138855%, 44.619751%, 78.846741%)" offset="0.636719"/><stop stop-opacity="1" stop-color="rgb(75.312805%, 44.50531%, 78.323364%)" offset="0.640625"/><stop stop-opacity="1" stop-color="rgb(75.485229%, 44.390869%, 77.798462%)" offset="0.644531"/><stop stop-opacity="1" stop-color="rgb(75.657654%, 44.276428%, 77.275085%)" offset="0.648438"/><stop stop-opacity="1" stop-color="rgb(75.830078%, 44.161987%, 76.751709%)" offset="0.652344"/><stop stop-opacity="1" stop-color="rgb(76.002502%, 44.047546%, 76.228333%)" offset="0.65625"/><stop stop-opacity="1" stop-color="rgb(76.174927%, 43.933105%, 75.70343%)" offset="0.660156"/><stop stop-opacity="1" stop-color="rgb(76.348877%, 43.818665%, 75.180054%)" offset="0.664063"/><stop stop-opacity="1" stop-color="rgb(76.521301%, 43.704224%, 74.655151%)" offset="0.667969"/><stop stop-opacity="1" stop-color="rgb(76.693726%, 43.589783%, 74.131775%)" offset="0.671875"/><stop stop-opacity="1" stop-color="rgb(76.86615%, 43.475342%, 73.606873%)" offset="0.675781"/><stop stop-opacity="1" stop-color="rgb(77.038574%, 43.360901%, 73.083496%)" offset="0.679688"/><stop stop-opacity="1" stop-color="rgb(77.210999%, 43.24646%, 72.558594%)" offset="0.683594"/><stop stop-opacity="1" stop-color="rgb(77.384949%, 43.132019%, 72.035217%)" offset="0.6875"/><stop stop-opacity="1" stop-color="rgb(77.557373%, 43.017578%, 71.510315%)" offset="0.691406"/><stop stop-opacity="1" stop-color="rgb(77.729797%, 42.903137%, 70.986938%)" offset="0.695313"/><stop stop-opacity="1" stop-color="rgb(77.902222%, 42.788696%, 70.463562%)" offset="0.699219"/><stop stop-opacity="1" stop-color="rgb(78.074646%, 42.674255%, 69.940186%)" offset="0.703125"/><stop stop-opacity="1" stop-color="rgb(78.24707%, 42.559814%, 69.415283%)" offset="0.707031"/><stop stop-opacity="1" stop-color="rgb(78.419495%, 42.445374%, 68.891907%)" offset="0.710938"/><stop stop-opacity="1" stop-color="rgb(78.591919%, 42.330933%, 68.367004%)" offset="0.714844"/><stop stop-opacity="1" stop-color="rgb(78.765869%, 42.216492%, 67.843628%)" offset="0.71875"/><stop stop-opacity="1" stop-color="rgb(78.938293%, 42.102051%, 67.318726%)" offset="0.722656"/><stop stop-opacity="1" stop-color="rgb(79.110718%, 41.98761%, 66.795349%)" offset="0.726563"/><stop stop-opacity="1" stop-color="rgb(79.283142%, 41.873169%, 66.270447%)" offset="0.730469"/><stop stop-opacity="1" stop-color="rgb(79.455566%, 41.758728%, 65.74707%)" offset="0.734375"/><stop stop-opacity="1" stop-color="rgb(79.627991%, 41.644287%, 65.223694%)" offset="0.738281"/><stop stop-opacity="1" stop-color="rgb(79.801941%, 41.529846%, 64.700317%)" offset="0.742188"/><stop stop-opacity="1" stop-color="rgb(79.974365%, 41.415405%, 64.175415%)" offset="0.746094"/><stop stop-opacity="1" stop-color="rgb(80.14679%, 41.300964%, 63.652039%)" offset="0.75"/><stop stop-opacity="1" stop-color="rgb(80.319214%, 41.186523%, 63.127136%)" offset="0.753906"/><stop stop-opacity="1" stop-color="rgb(80.491638%, 41.072083%, 62.60376%)" offset="0.757812"/><stop stop-opacity="1" stop-color="rgb(80.664062%, 40.957642%, 62.078857%)" offset="0.761719"/><stop stop-opacity="1" stop-color="rgb(80.838013%, 40.843201%, 61.555481%)" offset="0.765625"/><stop stop-opacity="1" stop-color="rgb(81.010437%, 40.72876%, 61.030579%)" offset="0.769531"/><stop stop-opacity="1" stop-color="rgb(81.182861%, 40.614319%, 60.507202%)" offset="0.773438"/><stop stop-opacity="1" stop-color="rgb(81.355286%, 40.499878%, 59.9823%)" offset="0.777344"/><stop stop-opacity="1" stop-color="rgb(81.52771%, 40.385437%, 59.458923%)" offset="0.78125"/><stop stop-opacity="1" stop-color="rgb(81.700134%, 40.270996%, 58.935547%)" offset="0.785156"/><stop stop-opacity="1" stop-color="rgb(81.874084%, 40.156555%, 58.41217%)" offset="0.789062"/><stop stop-opacity="1" stop-color="rgb(82.046509%, 40.042114%, 57.887268%)" offset="0.792969"/><stop stop-opacity="1" stop-color="rgb(82.218933%, 39.927673%, 57.363892%)" offset="0.796875"/><stop stop-opacity="1" stop-color="rgb(82.391357%, 39.813232%, 56.838989%)" offset="0.800781"/><stop stop-opacity="1" stop-color="rgb(82.563782%, 39.698792%, 56.315613%)" offset="0.804688"/><stop stop-opacity="1" stop-color="rgb(82.736206%, 39.584351%, 55.79071%)" offset="0.808594"/><stop stop-opacity="1" stop-color="rgb(82.90863%, 39.46991%, 55.267334%)" offset="0.8125"/><stop stop-opacity="1" stop-color="rgb(83.081055%, 39.355469%, 54.742432%)" offset="0.816406"/><stop stop-opacity="1" stop-color="rgb(83.255005%, 39.241028%, 54.219055%)" offset="0.820312"/><stop stop-opacity="1" stop-color="rgb(83.427429%, 39.126587%, 53.695679%)" offset="0.824219"/><stop stop-opacity="1" stop-color="rgb(83.599854%, 39.012146%, 53.172302%)" offset="0.828125"/><stop stop-opacity="1" stop-color="rgb(83.772278%, 38.897705%, 52.6474%)" offset="0.832031"/><stop stop-opacity="1" stop-color="rgb(83.944702%, 38.783264%, 52.124023%)" offset="0.835938"/><stop stop-opacity="1" stop-color="rgb(84.117126%, 38.668823%, 51.599121%)" offset="0.839844"/><stop stop-opacity="1" stop-color="rgb(84.291077%, 38.554382%, 51.075745%)" offset="0.84375"/><stop stop-opacity="1" stop-color="rgb(84.463501%, 38.439941%, 50.550842%)" offset="0.847656"/><stop stop-opacity="1" stop-color="rgb(84.635925%, 38.3255%, 50.027466%)" offset="0.851562"/><stop stop-opacity="1" stop-color="rgb(84.80835%, 38.21106%, 49.502563%)" offset="0.855469"/><stop stop-opacity="1" stop-color="rgb(84.980774%, 38.096619%, 48.979187%)" offset="0.859375"/><stop stop-opacity="1" stop-color="rgb(85.153198%, 37.982178%, 48.454285%)" offset="0.863281"/><stop stop-opacity="1" stop-color="rgb(85.327148%, 37.867737%, 47.930908%)" offset="0.867188"/><stop stop-opacity="1" stop-color="rgb(85.499573%, 37.753296%, 47.407532%)" offset="0.871094"/><stop stop-opacity="1" stop-color="rgb(85.671997%, 37.638855%, 46.884155%)" offset="0.875"/><stop stop-opacity="1" stop-color="rgb(85.844421%, 37.524414%, 46.359253%)" offset="0.878906"/><stop stop-opacity="1" stop-color="rgb(86.016846%, 37.409973%, 45.835876%)" offset="0.882812"/><stop stop-opacity="1" stop-color="rgb(86.18927%, 37.295532%, 45.310974%)" offset="0.886719"/><stop stop-opacity="1" stop-color="rgb(86.36322%, 37.181091%, 44.787598%)" offset="0.890625"/><stop stop-opacity="1" stop-color="rgb(86.535645%, 37.06665%, 44.262695%)" offset="0.894531"/><stop stop-opacity="1" stop-color="rgb(86.708069%, 36.952209%, 43.739319%)" offset="0.898438"/><stop stop-opacity="1" stop-color="rgb(86.880493%, 36.837769%, 43.214417%)" offset="0.902344"/><stop stop-opacity="1" stop-color="rgb(87.052917%, 36.723328%, 42.69104%)" offset="0.90625"/><stop stop-opacity="1" stop-color="rgb(87.225342%, 36.608887%, 42.166138%)" offset="0.910156"/><stop stop-opacity="1" stop-color="rgb(87.397766%, 36.494446%, 41.642761%)" offset="0.914063"/><stop stop-opacity="1" stop-color="rgb(87.57019%, 36.380005%, 41.119385%)" offset="0.917969"/><stop stop-opacity="1" stop-color="rgb(87.744141%, 36.265564%, 40.596008%)" offset="0.921875"/><stop stop-opacity="1" stop-color="rgb(87.916565%, 36.151123%, 40.071106%)" offset="0.925781"/><stop stop-opacity="1" stop-color="rgb(88.088989%, 36.036682%, 39.547729%)" offset="0.929688"/><stop stop-opacity="1" stop-color="rgb(88.261414%, 35.922241%, 39.022827%)" offset="0.933594"/><stop stop-opacity="1" stop-color="rgb(88.433838%, 35.8078%, 38.499451%)" offset="0.9375"/><stop stop-opacity="1" stop-color="rgb(88.516235%, 35.752869%, 38.249207%)" offset="0.941406"/><stop stop-opacity="1" stop-color="rgb(88.598633%, 35.699463%, 37.998962%)" offset="0.945313"/><stop stop-opacity="1" stop-color="rgb(88.598633%, 35.699463%, 37.998962%)" offset="0.953125"/><stop stop-opacity="1" stop-color="rgb(88.598633%, 35.699463%, 37.998962%)" offset="0.96875"/><stop stop-opacity="1" stop-color="rgb(88.598633%, 35.699463%, 37.998962%)" offset="1"/></linearGradient></defs><g clip-path="url(#2ce5f8764d)"><rect x="-15" fill="url(#1e5b706eb7)" width="180" y="-15" height="179.999997"/></g></svg>